<svg id="Layer_1" data-name="Layer 1" xmlns="http://www.w3.org/2000/svg" viewBox="0 0 400 300" width="406" height="306" class="illustration styles_illustrationTablet__1DWOa"><path d="M90.59,279.55S58.28,281.81,45,276.36s-3.74-21.1,9.19-24.51,20.77,15.32,26.55-2,20.88-25.95,30.53-14.17,19.52,15.53,29.73,5,19.62-1.93,23.77,13.5,52.14-14.18,70.53-8.4,32.34,22.81,43.57,4.43,24.51-23.15,32-12.26,9.87,23.83,23.15,14,31.32-1,26.21,10.55-39.33,15.48-39.33,15.48S122.22,268.1,90.59,279.55Z" fill="#e6e6e6" opacity="0.42"></path><path d="M187.46,221s7.16,23.93-6.8,31-22.38-3.94-36.94,5.76-6.89-24-29.1-22.47-13.88,19.14-13.88,19.14S81.6,235.74,71.68,252s-5.13,31.54,39.59,26.94,77.53,1.66,116.27.83,110,6.83,113.8-14.61-16.08-30.95-36.77-18.93-17.22-15.68-41.16-3-52.26,27.28-59.5-28.8Z" fill="#e6e6e6"></path><path d="M138.73,30.61C87.47,41.91,53.32,91.38,62.78,143c4.51,24.64,19,49.09,55.41,60.5,87.38,27.4,185.87,13.73,203.24-40.2s6.12-88.65-36.26-115.71C257.79,30.11,192.28,18.81,138.73,30.61Z" fill="#24285b"></path><polygon points="172.66 133.56 131.66 179.31 176.32 179.31 172.66 133.56" fill="#7060ff"></polygon><polygon points="222.73 133.56 263.73 179.31 219.07 179.31 222.73 133.56" fill="#7060ff"></polygon><path d="M196.81,60.35v-.27l-.14.14-.14-.14v.28c-3.56,3.58-39.3,42.8-18.71,154.07H217.4C238,103,200.47,63.86,196.81,60.35Z" fill="#7060ff"></path><path d="M220.76,116.85l1.14,7.88a73.84,73.84,0,0,1-33.83,5.43,18.34,18.34,0,0,0-16.2,7.1h0S173,121,173.81,117.31Z" fill="#3b1e59" opacity="0.11"></path><path d="M196.81,60.35v-.27l-.14.14-.14-.14v.28c-3.56,3.58-39.3,42.8-18.71,154.07H217.4C238,103,200.47,63.86,196.81,60.35Z" fill="#fff" opacity="0.7"></path><path d="M182.91,153.37l-11,12.39a215,215,0,0,0,3.33,32.9L203.05,178Z" opacity="0.08"></path><polygon points="176.32 205.86 177.82 214.43 217.76 214.43 219.33 205.86 176.32 205.86" fill="#ffd200"></polygon><path d="M175.76,107.13l-.08.24a26.69,26.69,0,0,0-1.75,9.21l-.12.73s22.21,12.62,46.95-.46h0a4.61,4.61,0,0,0,.17-1.34,23.1,23.1,0,0,0-1.86-8.38H175.76Z" fill="#ffd200"></path><polygon points="176.32 205.86 177.82 214.43 217.76 214.43 219.33 205.86 176.32 205.86" fill="#7060ff"></polygon><path d="M175.76,107.13l-.08.24a26.69,26.69,0,0,0-1.75,9.21l-.12.73s22.21,12.62,46.95-.46h0a4.61,4.61,0,0,0,.17-1.34,23.1,23.1,0,0,0-1.86-8.38H175.76Z" fill="#7060ff"></path><polygon points="176.32 205.86 177.82 214.43 217.76 214.43 219.33 205.86 176.32 205.86" opacity="0.08"></polygon><path d="M175.76,107.13l-.08.24a26.69,26.69,0,0,0-1.75,9.21l-.12.73s22.21,12.62,46.95-.46h0a4.61,4.61,0,0,0,.17-1.34,23.1,23.1,0,0,0-1.86-8.38H175.76Z" opacity="0.08"></path><path d="M175.76,107.13s21,9.77,43.31,0c0,0-3.13-30.62-18-48.23a4.7,4.7,0,0,0-7.26.11C188.89,65.18,180.27,79.43,175.76,107.13Z" fill="#7060ff"></path><circle cx="197.91" cy="162.06" r="17.25" fill="#7060ff"></circle><circle cx="197.91" cy="162.06" r="10.53" fill="#24285b"></circle><circle cx="200.38" cy="158.35" r="3.71" fill="#fff" opacity="0.16"></circle><polygon points="177.82 214.43 153.99 243.23 203.91 226.07 203.91 214.43 177.82 214.43" fill="#7060ff"></polygon><polygon points="217.57 214.43 241.4 243.23 191.49 226.07 191.49 214.43 217.57 214.43" fill="#7060ff"></polygon><circle cx="95.02" cy="141.03" r="3.23" fill="#fff"></circle><circle cx="168.23" cy="45.04" r="3.23" fill="#fff"></circle><circle cx="252.13" cy="111.8" r="3.23" fill="#fff"></circle><circle cx="241.25" cy="50.84" r="1.55" fill="#fff"></circle><circle cx="310.37" cy="128.6" r="1.55" fill="#fff"></circle><circle cx="275.81" cy="191.6" r="1.55" fill="#fff"></circle><circle cx="151.14" cy="195.81" r="1.55" fill="#fff"></circle><circle cx="130.23" cy="88.67" r="31.99" fill="#fff" opacity="0.08"></circle><circle cx="130.23" cy="88.67" r="25.36" fill="#ffd200"></circle><circle cx="121.43" cy="77.53" r="5.32" opacity="0.08"></circle><circle cx="137.41" cy="77.18" r="3.55" opacity="0.08"></circle></svg>