<?xml version="1.0" encoding="utf-8"?><svg xmlns="http://www.w3.org/2000/svg" xmlns:xlink="http://www.w3.org/1999/xlink" width="500" height="600" preserveAspectRatio="xMidYMid" viewBox="0 0 500 600" style="z-index:1;margin-right:-2px;display:block;background-repeat-y:initial;background-repeat-x:initial;animation-play-state:paused" ><g transform="translate(250,300) scale(1,1) translate(-250,-300)" style="transform:matrix(1, 0, 0, 1, 0, 0);animation-play-state:paused" ><linearGradient id="lg-0.5170659945663978" x1="0" x2="1" y1="0" y2="0" style="animation-play-state:paused" ><stop stop-color="#7139ff" offset="0" style="animation-play-state:paused" ></stop>

  
<stop stop-color="#005ea1" offset="1" style="animation-play-state:paused" ></stop></linearGradient>
<path d="M 0 0 L 0 493.725 Q 50 515.456 100 494.914 T 200 406.016 T 300 381.41 T 400 269.808 T 500 225.342 L 500 0 Z" fill="url(#lg-0.5170659945663978)" opacity="0.36" style="opacity:0.36;animation-play-state:paused" ></path>
<path d="M 0 0 L 0 524.069 Q 50 481.403 100 440.06 T 200 435.827 T 300 407.46 T 400 338.401 T 500 237.325 L 500 0 Z" fill="url(#lg-0.5170659945663978)" opacity="0.36" style="opacity:0.36;animation-play-state:paused" ></path>
<path d="M 0 0 L 0 573.307 Q 50 510.587 100 490.754 T 200 454.278 T 300 400.219 T 400 319.774 T 500 200.539 L 500 0 Z" fill="url(#lg-0.5170659945663978)" opacity="0.36" style="opacity:0.36;animation-play-state:paused" ></path>
<path d="M 0 0 L 0 550.466 Q 50 548.529 100 523.254 T 200 399.407 T 300 417.01 T 400 343.101 T 500 246.598 L 500 0 Z" fill="url(#lg-0.5170659945663978)" opacity="0.36" style="opacity:0.36;animation-play-state:paused" ></path>
<path d="M 0 0 L 0 564.969 Q 50 525.71 100 496.111 T 200 390.202 T 300 381.894 T 400 335.379 T 500 258.13 L 500 0 Z" fill="url(#lg-0.5170659945663978)" opacity="0.36" style="opacity:0.36;animation-play-state:paused" ></path></g></svg>