<svg xmlns="http://www.w3.org/2000/svg" viewBox="0 0 750 500"><g id="freepik--background-complete--inject-23"><path d="M115.21,209.4l-13.13.27-6.66.12c-2.22,0-4.46,0-6.69.05h-.45v-.45l0-11.19v-.51h.5l13.24.06c4.41,0,8.82.11,13.24.16h.27v.27c0,1.89-.09,3.78-.13,5.65Zm0,0-.14-5.66c0-1.86-.12-3.7-.14-5.53l.28.27c-4.42.05-8.83.16-13.24.16l-13.24.07.5-.5-.06,11.19-.44-.45c2.18,0,4.35,0,6.54.06l6.58.11Z" style="fill:#ebebeb"></path><path d="M100.44,223.51l-13.13.27-6.66.12c-2.23,0-4.46,0-6.69,0h-.45v-.44l-.05-11.19v-.51H74l13.24.06c4.41,0,8.82.11,13.24.16h.27v.27c0,1.89-.09,3.78-.13,5.65Zm0,0-.15-5.66c0-1.86-.11-3.7-.13-5.53l.28.27c-4.42,0-8.83.16-13.24.16L74,212.82l.49-.5,0,11.19-.44-.45c2.18,0,4.35,0,6.54.05l6.58.12Z" style="fill:#ebebeb"></path><path d="M130,223.51l-13.13.27-6.66.12c-2.22,0-4.46,0-6.69,0h-.44v-.44l0-11.19v-.51h.5l13.24.06c4.41,0,8.83.11,13.24.16h.27v.27c0,1.89-.08,3.78-.13,5.65Zm0,0-.14-5.66c-.05-1.86-.11-3.7-.13-5.53l.27.27c-4.41,0-8.83.16-13.24.16l-13.24.07.5-.5-.06,11.19-.44-.45c2.18,0,4.36,0,6.54.05l6.58.12Z" style="fill:#ebebeb"></path><path d="M582.54,339l-13.13.28-6.66.11c-2.22.05-4.46,0-6.69.06h-.45V339l-.05-11.19v-.5h.5l13.24.06c4.41,0,8.82.12,13.24.17h.27v.27c0,1.9-.09,3.79-.13,5.65Zm0,0-.14-5.65c0-1.87-.12-3.71-.14-5.54l.28.27c-4.42.05-8.83.16-13.24.17l-13.24.06.5-.5L556.5,339l-.44-.45c2.18,0,4.36,0,6.54.06l6.58.11Z" style="fill:#ebebeb"></path><path d="M567.77,353.1l-13.13.28-6.66.11c-2.23.05-4.46,0-6.69.06h-.45v-.45l-.05-11.19v-.5h.51l13.24.06c4.41,0,8.82.12,13.24.17H568v.27c0,1.9-.09,3.79-.13,5.65Zm0,0-.15-5.65c0-1.87-.11-3.71-.13-5.54l.28.27c-4.42.05-8.83.16-13.24.17l-13.24.06.49-.5,0,11.19-.44-.45c2.18,0,4.35,0,6.54.06l6.58.11Z" style="fill:#ebebeb"></path><path d="M597.31,353.1l-13.13.28-6.66.11c-2.22.05-4.46,0-6.69.06h-.44v-.45l0-11.19v-.5h.5l13.24.06c4.41,0,8.83.12,13.24.17h.28v.27c0,1.9-.08,3.79-.13,5.65Zm0,0-.14-5.65c0-1.87-.11-3.71-.13-5.54l.27.27c-4.41.05-8.83.16-13.24.17l-13.24.06.5-.5-.06,11.19-.44-.45c2.18,0,4.36,0,6.54.06l6.58.11Z" style="fill:#ebebeb"></path><path d="M661.27,223.51l-13.12.27-6.66.12c-2.23,0-4.47,0-6.7,0h-.44v-.44l-.06-11.19v-.51h.5l13.24.06c4.42,0,8.83.11,13.24.16h.28v.27c0,1.89-.09,3.78-.13,5.65Zm0,0-.14-5.66c0-1.86-.11-3.7-.13-5.53l.27.27c-4.41,0-8.82.16-13.24.16l-13.24.07.5-.5,0,11.19-.45-.45c2.18,0,4.36,0,6.55.05l6.58.12Z" style="fill:#ebebeb"></path><path d="M224,353.1l-13.12.28-6.66.11c-2.23.05-4.47,0-6.7.06h-.44v-.45L197,341.91v-.5h.5l13.24.06c4.41,0,8.83.12,13.24.17h.28v.27c0,1.9-.08,3.79-.13,5.65Zm0,0-.14-5.65c-.05-1.87-.11-3.71-.13-5.54l.27.27c-4.41.05-8.83.16-13.24.17l-13.24.06.5-.5L198,353.1l-.45-.45c2.18,0,4.36,0,6.55.06l6.58.11Z" style="fill:#ebebeb"></path><path d="M661.27,65.07l-13.12.28-6.66.11c-2.23.05-4.47,0-6.7.06h-.44v-.45l-.06-11.19v-.5h.5l13.24.07c4.42,0,8.83.11,13.24.16h.28v.27c0,1.9-.09,3.79-.13,5.66Zm0,0-.14-5.65c0-1.86-.11-3.71-.13-5.54l.27.28c-4.41.05-8.82.15-13.24.16l-13.24.06.5-.5,0,11.19-.45-.44c2.18,0,4.36,0,6.55.05l6.58.11Z" style="fill:#ebebeb"></path><path d="M676,79.18l-13.12.28-6.66.11c-2.23.05-4.46,0-6.7.06h-.44v-.45L649.06,68v-.5h.5l13.24.07c4.42,0,8.83.11,13.24.16h.28V68c0,1.9-.09,3.79-.13,5.66Zm0,0-.14-5.65c0-1.86-.11-3.71-.13-5.54l.27.28c-4.41,0-8.82.15-13.24.16l-13.24.06.5-.5,0,11.19-.45-.44c2.19,0,4.36,0,6.55.05l6.58.11Z" style="fill:#ebebeb"></path><path d="M100.44,65.09l-13.13.27-6.66.12c-2.23,0-4.46,0-6.69,0h-.45v-.44L73.46,53.9v-.51H74l13.24.06c4.41,0,8.82.11,13.24.16h.27v.27c0,1.89-.09,3.78-.13,5.65Zm0,0-.15-5.66c0-1.86-.11-3.7-.13-5.53l.28.27c-4.42,0-8.83.16-13.24.16L74,54.39l.49-.49,0,11.19L74,64.64c2.18,0,4.35,0,6.54,0l6.58.12Z" style="fill:#ebebeb"></path><path d="M402.91,144.57l13.13-.28,6.66-.11c2.22-.05,4.46,0,6.69-.06h.45v.45l.05,11.19v.5h-.5l-13.24-.06c-4.41,0-8.82-.12-13.24-.17h-.27v-.27c0-1.9.09-3.79.13-5.65Zm0,0,.14,5.65c.05,1.87.12,3.71.14,5.54l-.28-.27c4.42-.05,8.83-.16,13.24-.17l13.24-.06-.5.5.06-11.19.44.45c-2.18,0-4.35,0-6.54-.06l-6.58-.11Z" style="fill:#ebebeb"></path><path d="M417.68,130.46l13.13-.28,6.66-.11c2.23,0,4.46,0,6.69-.06h.45v.45l.05,11.19v.5h-.51l-13.24-.06c-4.41,0-8.82-.12-13.24-.17h-.27v-.27c0-1.9.09-3.79.13-5.65Zm0,0,.15,5.65c0,1.87.11,3.71.13,5.54l-.28-.27c4.42,0,8.83-.16,13.24-.17l13.24-.06-.49.5.05-11.19.44.45c-2.18,0-4.35,0-6.54-.06l-6.58-.11Z" style="fill:#ebebeb"></path><rect x="304.29" y="70.89" width="55.17" height="55.17" style="fill:#fff"></rect><path d="M362.33,128.93V68H301.42v60.91Zm-58-58h55.17v55.17H304.29Z" style="fill:#dbdbdb"></path><rect x="320.22" y="69.61" width="19.07" height="43" transform="translate(238.65 420.87) rotate(-90)" style="fill:#ebebeb"></rect><rect x="320.86" y="87.46" width="22.03" height="22.03" transform="translate(233.4 430.35) rotate(-90)" style="fill:#c7c7c7"></rect><rect x="299.07" y="68.02" width="2.35" height="60.91" transform="translate(600.49 196.95) rotate(180)" style="fill:#c7c7c7"></rect><rect x="225.96" y="70.89" width="55.17" height="55.17" style="fill:#fff"></rect><rect x="257.24" y="75.62" width="14.4" height="41.61" style="fill:#c7c7c7"></rect><path d="M284,128.93V68H223.09v60.91Zm-58-58h55.17v55.17H226Z" style="fill:#dbdbdb"></path><rect x="242.53" y="87.46" width="22.03" height="22.03" style="fill:#ebebeb"></rect><rect x="220.74" y="68.02" width="2.35" height="60.91" transform="translate(443.82 196.95) rotate(180)" style="fill:#c7c7c7"></rect><rect x="147.63" y="70.89" width="55.17" height="55.17" style="fill:#fff"></rect><rect x="166.4" y="100.44" width="30.27" height="18.1" style="fill:#ebebeb"></rect><path d="M205.66,128.93V68h-60.9v60.91Zm-58-58h55.16v55.17H147.63Z" style="fill:#dbdbdb"></path><rect x="164.2" y="87.46" width="22.03" height="22.03" style="fill:#c7c7c7"></rect><rect x="142.4" y="68.02" width="2.35" height="60.91" transform="translate(287.16 196.95) rotate(180)" style="fill:#c7c7c7"></rect></g><g id="freepik--Shadows--inject-23"><ellipse cx="309.85" cy="413.28" rx="165.69" ry="20.37" style="fill:#ebebeb"></ellipse><ellipse cx="538.08" cy="440.82" rx="154.57" ry="15.53" style="fill:#ebebeb"></ellipse></g><g id="freepik--Sofa--inject-23"><polygon points="493.18 351.52 480.03 351.52 460.44 233.06 493.18 233.06 493.18 351.52" style="fill:#A627FF"></polygon><polygon points="493.18 351.52 480.03 351.52 460.44 233.06 493.18 233.06 493.18 351.52" style="opacity:0.30000000000000004"></polygon><rect x="493.18" y="233.06" width="26.45" height="118.46" style="fill:#A627FF"></rect><path d="M493.18,233.06c.21,7.73.3,15.46.38,23.2l.12,42.9-.12,23.2-.14,11.6-.24,11.6-.24-11.6-.14-11.6-.12-23.2.12-42.9C492.88,248.52,493,240.79,493.18,233.06Z" style="opacity:0.1"></path><polygon points="363.82 300.84 332.42 300.84 314.44 197.52 343.2 182.29 363.82 300.84" style="fill:#A627FF"></polygon><polygon points="363.82 300.84 332.42 300.84 314.44 197.52 343.2 182.29 363.82 300.84" style="opacity:0.30000000000000004"></polygon><polygon points="482.1 300.84 363.82 300.84 343.2 182.29 461.48 182.29 482.1 300.84" style="fill:#A627FF"></polygon><polygon points="482.1 300.84 363.82 300.84 343.2 182.29 461.48 182.29 482.1 300.84" style="opacity:0.1"></polygon><polygon points="243.4 300.84 212 300.84 194.02 197.52 222.78 182.29 243.4 300.84" style="fill:#A627FF"></polygon><polygon points="243.4 300.84 212 300.84 194.02 197.52 222.78 182.29 243.4 300.84" style="opacity:0.30000000000000004"></polygon><polygon points="361.68 300.84 243.4 300.84 222.78 182.29 341.06 182.29 361.68 300.84" style="fill:#A627FF"></polygon><polygon points="361.68 300.84 243.4 300.84 222.78 182.29 341.06 182.29 361.68 300.84" style="opacity:0.1"></polygon><polygon points="122.99 300.84 91.58 300.84 73.61 197.52 102.36 182.29 122.99 300.84" style="fill:#A627FF"></polygon><polygon points="122.99 300.84 91.58 300.84 73.61 197.52 102.36 182.29 122.99 300.84" style="opacity:0.30000000000000004"></polygon><polygon points="241.26 300.84 122.99 300.84 102.36 182.29 220.64 182.29 241.26 300.84" style="fill:#A627FF"></polygon><polygon points="241.26 300.84 122.99 300.84 102.36 182.29 220.64 182.29 241.26 300.84" style="opacity:0.1"></polygon><rect x="58.73" y="233.06" width="48.13" height="118.46" style="fill:#A627FF"></rect><rect x="58.73" y="233.06" width="48.13" height="118.46" style="opacity:0.1"></rect><rect x="106.86" y="233.06" width="26.45" height="118.46" style="fill:#A627FF"></rect><path d="M113.34,233.06l10-.18,10-.13h.3v.31l.11,11.55,0,31.27c0,7.7.06,15.41,0,23.11s0,15.41-.13,23.12-.17,15.41-.33,23.11c-.17-7.7-.27-15.41-.34-23.11s-.11-15.41-.13-23.12,0-15.41,0-23.11l0-31.27.12-11.55.3.3-10-.13Z" style="opacity:0.1"></path><rect x="133.31" y="300.84" width="358.41" height="50.68" style="fill:#A627FF"></rect><rect x="133.31" y="300.84" width="358.41" height="50.68" style="opacity:0.1"></rect><rect x="133.31" y="278.93" width="358.41" height="22.11" style="fill:#A627FF"></rect><path d="M491.72,300.84c-12.18.21-24.36.3-36.54.38l-36.54.12-248.79-.12-18.27-.14-18.27-.24,18.27-.24,18.27-.14,248.79-.12,36.54.12C467.36,300.54,479.54,300.63,491.72,300.84Z" style="opacity:0.1"></path><path d="M491.72,278.93c-12.18.21-24.36.3-36.54.38l-36.54.12-248.79-.11-18.27-.14-18.27-.25,18.27-.24,18.27-.14,248.79-.12,36.54.12C467.36,278.63,479.54,278.73,491.72,278.93Z" style="opacity:0.1"></path><polygon points="77.02 351.52 76.37 359.52 74.85 378 67.88 378 66.36 359.52 65.71 351.52 77.02 351.52" style="fill:#c7c7c7"></polygon><polygon points="65.71 351.52 77.02 351.52 76.37 359.52 66.36 359.52 65.71 351.52" style="fill:#a6a6a6"></polygon><polygon points="125.74 351.52 125.09 359.52 123.57 378 116.6 378 115.08 359.52 114.43 351.52 125.74 351.52" style="fill:#c7c7c7"></polygon><polygon points="114.43 351.52 125.74 351.52 125.09 359.52 115.08 359.52 114.43 351.52" style="fill:#a6a6a6"></polygon><polygon points="463.08 351.52 462.43 359.52 460.91 378 453.94 378 452.42 359.52 451.77 351.52 463.08 351.52" style="fill:#c7c7c7"></polygon><polygon points="451.77 351.52 463.08 351.52 462.43 359.52 452.42 359.52 451.77 351.52" style="fill:#a6a6a6"></polygon><polygon points="511.81 351.52 511.16 359.52 509.64 378 502.67 378 501.15 359.52 500.5 351.52 511.81 351.52" style="fill:#c7c7c7"></polygon><polygon points="511.81 351.52 511.16 359.52 501.15 359.52 500.5 351.52 511.81 351.52" style="fill:#a6a6a6"></polygon><g style="opacity:0.30000000000000004"><path d="M152.57,229.62a.65.65,0,0,0,0,1.3A.65.65,0,0,0,152.57,229.62Z"></path><path d="M153.68,309.07a.65.65,0,0,0,0,1.3A.65.65,0,0,0,153.68,309.07Z"></path><path d="M113.28,190a1.14,1.14,0,0,0-.1-.19.29.29,0,0,0-.5,0,1.14,1.14,0,0,0-.1.19C112.21,190.75,113.65,190.75,113.28,190Z"></path><path d="M126.09,310.7a1.74,1.74,0,0,0-.1-.19.29.29,0,0,0-.5,0,1.74,1.74,0,0,0-.1.19C125,311.47,126.46,311.47,126.09,310.7Z"></path><path d="M158.16,233.58a.5.5,0,0,0,0,1A.5.5,0,0,0,158.16,233.58Z"></path><path d="M360.87,249.74a.5.5,0,0,0,0,1A.5.5,0,0,0,360.87,249.74Z"></path><path d="M116.45,283.94a.5.5,0,0,0,0,1A.5.5,0,0,0,116.45,283.94Z"></path><path d="M181.57,205.91a.68.68,0,0,0-1,0,.94.94,0,0,0-.24.93.75.75,0,0,0,1.44,0A.94.94,0,0,0,181.57,205.91Z"></path><path d="M159.12,305.39a.7.7,0,0,0-1,0,1,1,0,0,0-.24.94.76.76,0,0,0,1.45,0A1,1,0,0,0,159.12,305.39Z"></path><path d="M71.85,254.21a.7.7,0,0,0-1,0,1,1,0,0,0-.23.94.75.75,0,0,0,1.44,0A1,1,0,0,0,71.85,254.21Z"></path><path d="M415.93,310.79a.65.65,0,0,0,0-1.3A.65.65,0,0,0,415.93,310.79Z"></path><path d="M272.71,194.73a.65.65,0,0,0,0-1.3A.65.65,0,0,0,272.71,194.73Z"></path><path d="M281.27,312.09a.65.65,0,0,0,0-1.3A.65.65,0,0,0,281.27,312.09Z"></path><path d="M412.2,207.63a.65.65,0,0,0,0-1.3A.65.65,0,0,0,412.2,207.63Z"></path><path d="M249,225.41a.65.65,0,0,0,0-1.3A.65.65,0,0,0,249,225.41Z"></path><path d="M368,243.75a1.86,1.86,0,0,0,.1.2.29.29,0,0,0,.5,0,1.86,1.86,0,0,0,.1-.2C369.09,243,367.65,243,368,243.75Z"></path><path d="M309.45,306a1.14,1.14,0,0,0,.1.19.29.29,0,0,0,.5,0,1.14,1.14,0,0,0,.1-.19C310.52,305.19,309.08,305.19,309.45,306Z"></path><path d="M315.22,340.69a1.14,1.14,0,0,0,.1.19.29.29,0,0,0,.5,0,1.14,1.14,0,0,0,.1-.19C316.29,339.92,314.85,339.92,315.22,340.69Z"></path><path d="M464.93,294.21l.1.19a.3.3,0,0,0,.51,0,1.74,1.74,0,0,0,.1-.19C466,293.44,464.57,293.44,464.93,294.21Z"></path><path d="M410.35,306.83a.5.5,0,0,0,0-1A.5.5,0,0,0,410.35,306.83Z"></path><path d="M452.54,199.79a.5.5,0,0,0,0-1A.5.5,0,0,0,452.54,199.79Z"></path><path d="M452.06,256.47a.5.5,0,0,0,0-1A.5.5,0,0,0,452.06,256.47Z"></path><path d="M506.15,319.91a.5.5,0,0,0,0-1A.5.5,0,0,0,506.15,319.91Z"></path><path d="M455.6,323a.5.5,0,0,0,0-1A.5.5,0,0,0,455.6,323Z"></path><path d="M377.37,334.51a.7.7,0,0,0,1,0,1,1,0,0,0,.24-.94.76.76,0,0,0-1.45,0A1,1,0,0,0,377.37,334.51Z"></path><path d="M409.39,235a.7.7,0,0,0,1,0,1,1,0,0,0,.23-.94.75.75,0,0,0-1.44,0A1,1,0,0,0,409.39,235Z"></path><path d="M514.06,273.63a.7.7,0,0,0,1,0,1,1,0,0,0,.23-.94.75.75,0,0,0-1.44,0A1,1,0,0,0,514.06,273.63Z"></path><path d="M229.17,266.83a.68.68,0,0,0,1,0,.94.94,0,0,0,.24-.93.76.76,0,0,0-1.45,0A.94.94,0,0,0,229.17,266.83Z"></path><path d="M468.79,287.75a.7.7,0,0,0,1,0,1,1,0,0,0,.24-.94.76.76,0,0,0-1.45,0A1,1,0,0,0,468.79,287.75Z"></path></g></g><g id="freepik--Floor--inject-23"><polygon points="55.64 378 135.48 377.76 215.32 377.67 375 377.51 534.68 377.67 614.52 377.76 694.36 378 614.52 378.25 534.68 378.34 375 378.5 215.32 378.34 135.48 378.25 55.64 378" style="fill:#263238"></polygon></g><g id="freepik--Plant--inject-23"><path d="M91.24,311.2A54.16,54.16,0,0,1,93,321c-.09.17-.08.77,0,.61,0,.53.84.43.84-.09,0-.35,0-.69,0-1,1.91-2.37,4.68-3.87,6.92-5.92a12.9,12.9,0,0,0,3.78-6c1.86-6.4.12-13.18,2.35-19.56,1.93-5.5,5.38-10.28,8.3-15.26,3.08-5.27,5.36-10.81,5.59-17,.18-4.72-.39-11-4-14.56-3.81-3.76-8.54-1-11.47,2.41-8.47,9.72-12.39,22-14,34.57-.88,7-1.79,13.95-1.58,21A56.47,56.47,0,0,0,91.24,311.2Z" style="fill:#fff"></path><path d="M92.93,323.51a120,120,0,0,1,.23-19.7s0,0,0-.08c-.11-5.32-.53-10.62-.32-16a94.27,94.27,0,0,1,2.34-17.12c0-.06.12,0,.11,0a110.79,110.79,0,0,0-1.86,16.74c-.11,3-.08,6,.07,9,.06,1,.15,2,.21,2.95h0a105.37,105.37,0,0,1,15.85-41.93c.11-.17.41,0,.31.19a109.51,109.51,0,0,0-12.9,31.09c4.07-7.55,10.23-13.76,14.79-21a0,0,0,0,1,.07,0c-4.1,8.08-10.87,14.45-15.19,22.4-.75,3.24-1.37,6.52-1.82,9.81a109,109,0,0,0-1,13.63,156.66,156.66,0,0,0,7.08-14c.06-.13.24,0,.2.09-1.73,5.1-4,10.59-7.3,14.94,0,3.22.08,6.45.27,9.67.51,8.6,2,17.09,2.65,25.66a.2.2,0,0,1-.39,0A196.75,196.75,0,0,1,92.93,323.51Z" style="fill:#263238"></path><path d="M102.06,257.18a.05.05,0,0,1,.1,0c-1.57,4.35-2.46,8.75-3.6,13.2a.16.16,0,0,1-.32-.05A47.19,47.19,0,0,1,102.06,257.18Z" style="fill:#263238"></path><path d="M62.17,275.38a65.29,65.29,0,0,0,3.61,7.43c2.83,5.13,5.78,9.84,6.32,15.82a37.08,37.08,0,0,0,1.13,7.93,24.25,24.25,0,0,0,3.16,6.21c3.07,4.46,6.9,8.31,9.74,13a54.16,54.16,0,0,1,6.47,15.6c.07.3.55.22.48-.08a.19.19,0,0,1,0-.07.09.09,0,0,0,0-.06c.45-12.83-.58-25.76-4.49-38a132.54,132.54,0,0,0-6.21-15.83A37.51,37.51,0,0,0,74,275.18c-2.39-2.15-7.56-6.23-11-4.07C61.41,272.15,61.53,273.78,62.17,275.38Z" style="fill:#fff"></path><path d="M75.06,304.46a106.78,106.78,0,0,0,7.45,10.72c1.25,1.62,2.5,3.22,3.74,4.85.59.76,1.25,1.53,1.78,2.35-.33-1.35-.66-2.7-1-4.05a156.78,156.78,0,0,0-5.71-19.24,130.31,130.31,0,0,0-8.9-17.46c-.09-.15.15-.26.24-.11,2.71,4.45,5.46,8.9,7.74,13.6a72.3,72.3,0,0,1,3.28,8.08A125.58,125.58,0,0,0,79.3,286c0-.05,0-.09.07,0a58.69,58.69,0,0,1,4.54,17.94s0,0,0,0c.56,1.67,1.07,3.35,1.55,5,2,7.18,3.79,14.43,5.44,21.71a77.64,77.64,0,0,0-1.24-14.27c0-.1.14-.13.17,0a45.31,45.31,0,0,1,1.24,15q.93,4.15,1.81,8.31c1.26,5.91,2.81,11.93,3.55,17.93a.12.12,0,0,1-.24,0c-.88-3.23-1.41-6.59-2.13-9.86s-1.46-6.57-2.23-9.85c-1.11-4.77-2.28-9.53-3.47-14.28a25.51,25.51,0,0,0-3.48-4.76c-1.26-1.6-2.52-3.21-3.75-4.84A71.05,71.05,0,0,1,75,304.51C74.91,304.44,75,304.39,75.06,304.46Z" style="fill:#263238"></path><path d="M74.51,299a67.07,67.07,0,0,1,7.3,11.59c0,.05-.06.1-.09.05-2.46-3.85-4.87-7.72-7.32-11.57C74.36,299,74.47,298.92,74.51,299Z" style="fill:#263238"></path><path d="M129.11,287.54c-1.66,2.87-3.56,6.31-2.84,9.74.45,2.18,2,3.94,2.33,6.16.64,4.9-4.24,8.14-7.77,10.46-8.81,5.77-20.89,10.93-22.49,22.73-.06.41-.78.31-.73-.1a.24.24,0,0,1,0-.08s0,0,0-.07a45.18,45.18,0,0,1,.17-18,57.32,57.32,0,0,1,7.1-16.89c5.3-9,10.91-18.3,18.93-25.23,2.22-1.91,6.76-5.36,8.53-1S131.15,284.06,129.11,287.54Z" style="fill:#fff"></path><path d="M121.05,306.72c-5.84,6.32-15.12,9.86-20.15,16.94a70.94,70.94,0,0,1,15.49-29.09.23.23,0,0,0-.32-.32,57.37,57.37,0,0,0-12.66,18.33,82.54,82.54,0,0,1,5.45-13.94c.08-.17-.16-.32-.26-.15a53.07,53.07,0,0,0-5.87,15.67c-6.62,16-7.24,34.83-5.85,51.73,0,.24.39.25.38,0-.38-13.32-.16-26.87,3-39.87.06-.27.14-.54.21-.81,5.47-7.62,14.71-11.16,20.65-18.39C121.21,306.75,121.11,306.65,121.05,306.72Z" style="fill:#263238"></path><path d="M122.4,301.29c-3.06,2.81-6.08,5.68-9.15,8.5,0,0,0,.08,0,0a45.11,45.11,0,0,0,9.29-8.37A.13.13,0,0,0,122.4,301.29Z" style="fill:#263238"></path><path d="M122.89,289.1a96.94,96.94,0,0,1-9.17,12.62,0,0,0,1,0,.07.07,44.26,44.26,0,0,0,9.26-12.59A.09.09,0,0,0,122.89,289.1Z" style="fill:#263238"></path><polygon points="109.09 377.81 82.24 377.81 85.86 341.69 104.95 341.69 109.09 377.81" style="fill:#455a64"></polygon><polygon points="105.63 347.56 85.27 347.56 85.86 341.69 104.95 341.69 105.63 347.56" style="fill:#263238"></polygon><rect x="83.08" y="337.68" width="25.17" height="5.77" style="fill:#455a64"></rect></g><g id="freepik--Lamps--inject-23"><rect x="596.06" width="1" height="122.21" style="fill:#c7c7c7"></rect><polygon points="560.29 157.17 563.21 163.58 629.92 163.58 632.83 157.17 604.43 137.51 588.69 137.51 560.29 157.17" style="fill:#A627FF"></polygon><polygon points="586.72 118.57 588.69 137.51 604.43 137.51 606.4 118.57 586.72 118.57" style="fill:#A627FF"></polygon><polygon points="560.3 157.17 563.21 163.59 629.92 163.59 632.83 157.17 560.3 157.17" style="opacity:0.1"></polygon><polygon points="588.69 137.51 588.48 135.48 604.76 134.3 604.43 137.51 588.69 137.51" style="opacity:0.1"></polygon><rect x="525.53" width="1" height="83.76" style="fill:#c7c7c7"></rect><polygon points="489.76 118.72 492.68 125.13 559.39 125.13 562.3 118.72 533.9 99.06 518.16 99.06 489.76 118.72" style="fill:#A627FF"></polygon><polygon points="516.19 80.12 518.16 99.06 533.9 99.06 535.87 80.12 516.19 80.12" style="fill:#A627FF"></polygon><polygon points="489.77 118.72 492.68 125.13 559.39 125.13 562.3 118.72 489.77 118.72" style="opacity:0.1"></polygon><polygon points="518.16 99.06 517.94 96.87 534.24 95.81 533.9 99.06 518.16 99.06" style="opacity:0.1"></polygon></g><g id="freepik--character-1--inject-23"><path d="M237,411.39c-2.38.23-67.1-15.19-69.14-17.29-.25-.23,1-6.11,2.89-14.14l0-.15c1.16-5.09,20-46.22,20-46.22l42,11.69-19.06,38.17s7.89,5.7,14.66,11.11l0,0a94,94,0,0,1,8.55,7.28C238.86,404.38,239.32,411.18,237,411.39Z" style="fill:#eb9481"></path><path d="M237,411.39c-2.38.23-67.1-15.19-69.15-17.29-.24-.23,1-6.11,2.9-14.14l0-.15c.42-1.89,3.33-8.81,6.79-16.73,6.9,1.86,31.65,8.54,40.64,11.32l-4.52,9.05s7.9,5.7,14.67,11.11v0a93,93,0,0,1,8.55,7.27C238.86,404.39,239.33,411.19,237,411.39Z" style="fill:#ebebeb"></path><path d="M237.16,411.7c-2.44.21-67.21-15.38-69.31-17.54-.8-.81.64-11,4.18-21.86l41.75,10.1s21.32,16.88,23.36,19.49S239.61,411.49,237.16,411.7Z" style="fill:#A627FF"></path><path d="M236.86,408.88c-10.8-2.88-54.6-13.48-65.49-15.5-.09,0-.1,0,0,.06,10.64,3.09,54.53,13.34,65.46,15.62C237,409.11,237.08,408.94,236.86,408.88Z" style="fill:#263238"></path><path d="M233.54,398.56a9,9,0,0,0-7.14,1.08,8.74,8.74,0,0,0-3.82,5.22c0,.06.11.09.13,0a10.38,10.38,0,0,1,10.79-6.2C233.59,398.71,233.62,398.58,233.54,398.56Z" style="fill:#263238"></path><path d="M216.92,384.31c-4.33-1.11-9.74-.79-13.29,2.12-.14.11,0,.3.16.27a62,62,0,0,1,13.08-1.84A.28.28,0,0,0,216.92,384.31Z" style="fill:#263238"></path><path d="M220,386.42c-4.33-1.1-9.74-.78-13.29,2.12-.14.12,0,.31.16.27A62.66,62.66,0,0,1,219.91,387,.29.29,0,0,0,220,386.42Z" style="fill:#263238"></path><path d="M223,388.54c-4.33-1.11-9.74-.79-13.29,2.12-.14.11,0,.31.16.27A62,62,0,0,1,223,389.09.28.28,0,0,0,223,388.54Z" style="fill:#263238"></path><path d="M226,390.66c-4.33-1.11-9.74-.79-13.29,2.11-.14.12,0,.31.16.28A62,62,0,0,1,226,391.21.28.28,0,0,0,226,390.66Z" style="fill:#263238"></path><path d="M176.62,383.73c-4.88-1.16-6.69,6.42-1.8,7.58S181.51,384.89,176.62,383.73Z" style="fill:#263238"></path><path d="M224.41,373.84c-1.76-2.35-5-1.23-6.77.33A23.52,23.52,0,0,0,211,384.33a.12.12,0,0,0,.11.16c0,.34.32.69.69.54,3.61-1.39,7.64-2.44,10.72-4.9C224.32,378.69,226.07,376.07,224.41,373.84Zm-7.56,8c-1.76.73-3.54,1.36-5.27,2.16a70.25,70.25,0,0,1,4-5.85,25.11,25.11,0,0,1,2.29-2.55c1.29-1.21,6.43-3.81,5.73,1C223.21,379.24,219,380.93,216.85,381.8Z" style="fill:#263238"></path><path d="M199.83,383.35c3.64,1.49,7.8,1.35,11.66,1.67a.55.55,0,0,0,.52-.71c.06,0,.11-.11.05-.18a23.37,23.37,0,0,0-9.22-7.88c-2.19-1-5.57-1.16-6.59,1.6C195.28,380.45,197.7,382.48,199.83,383.35Zm-2-3.11c-2-4.43,3.62-3.39,5.2-2.59a24.8,24.8,0,0,1,2.92,1.79,67.55,67.55,0,0,1,5.49,4.49c-1.88-.28-3.78-.39-5.67-.59C203.48,383.1,198.92,382.69,197.8,380.24Z" style="fill:#263238"></path><path d="M217.36,378.47l-44.55-11.92s39.15-81.19,36-85.66c-1.58-2.23-43.33-4.11-56.28-15.78-16.82-15.15-4.58-37.17-4.58-37.17h46.69s-.86,9.74.92,11.26c1.17,1,56.61,7.35,62.16,26.28C264.51,288.71,217.36,378.47,217.36,378.47Z" style="fill:#263238"></path><path d="M218.14,371.94a27.79,27.79,0,0,0-3.66-1.38c-1.29-.45-2.58-.9-3.88-1.32q-3.84-1.26-7.72-2.39c-5.21-1.5-10.43-3-15.68-4.34-2.74-.71-8.6-2.26-9-2.21-.18,0-.22.32-.06.38,5.07,1.84,10.22,3.43,15.37,5s10.28,3.17,15.5,4.52c1.44.37,2.89.7,4.34,1a31.75,31.75,0,0,0,4.62,1C218.16,372.31,218.3,372,218.14,371.94Z" style="fill:#455a64"></path><path d="M216.89,277.26c-.91-.83-2.32-1-3.49-1.2q-10.05-2-20.09-4c-6.27-1.24-12.58-2.37-18.82-3.77-5.16-1.16-10.4-2.67-14.81-5.62a21.72,21.72,0,0,1-8.81-12.28,38.58,38.58,0,0,1-.73-15.43c.15-1.25.42-2.5.69-3.73a.08.08,0,0,0-.15,0c-2,9.51-2.47,20.61,4.47,28.45,3.38,3.82,8.11,6.14,13,7.7,5.47,1.76,11.22,2.69,16.86,3.81l20.1,4c3.23.64,6.51,1.16,9.7,1.93a3.25,3.25,0,0,1,1.73.82,2.54,2.54,0,0,1,.22,2.35c-.38,1.58-.85,3.14-1.35,4.68-4,12.45-32.46,71.41-33.23,72.77-.08.14.15.26.23.12,6.51-10.83,27.68-56.35,32.11-68.11a76.3,76.3,0,0,0,2.92-9.17C217.68,279.41,217.85,278.14,216.89,277.26Z" style="fill:#455a64"></path><path d="M354.25,414.53c-2.26.77-68.8.76-71.27-.81-.29-.17-.42-6.19-.45-14.42l.06-7.77c0-2.62-32.19-42.45-32.19-42.45l47.77-.43,26.95,44.09s9,3.72,16.83,7.42l0,0a90.67,90.67,0,0,1,10,5.1C354.49,407.27,356.51,413.78,354.25,414.53Z" style="fill:#eb9481"></path><path d="M274.47,379.65c4.66,6.16,8.12,11,8.11,11.88l-.05,7.77c0,8.23.16,14.25.46,14.42,2.47,1.57,69,1.58,71.26.82s.24-7.27-2.28-9.27a93.48,93.48,0,0,0-10-5.1h0c-7.83-3.7-16.84-7.42-16.84-7.42L317.33,380Z" style="fill:#ebebeb"></path><path d="M354.53,414.78c-2.33.77-68.95.6-71.49-1-1-.61-1.94-10.88-1-22.24l42.95.16s24.65,11.49,27.24,13.55S356.86,414,354.53,414.78Z" style="fill:#A627FF"></path><path d="M353.58,412.11c-11.17-.3-56.24-.47-67.3.08-.09,0-.09.06,0,.07,11.06.54,56.13.35,67.3,0C353.81,412.29,353.82,412.12,353.58,412.11Z" style="fill:#263238"></path><path d="M348,402.84a8.93,8.93,0,0,0-6.69,2.71,8.7,8.7,0,0,0-2.51,5.95c0,.07.12.07.13,0A10.36,10.36,0,0,1,348,403,.07.07,0,0,0,348,402.84Z" style="fill:#263238"></path><path d="M328.5,392.82c-4.47-.07-9.66,1.49-12.45,5.14-.1.14.1.29.23.23a61.52,61.52,0,0,1,12.29-4.82A.28.28,0,0,0,328.5,392.82Z" style="fill:#263238"></path><path d="M331.94,394.18c-4.47-.08-9.65,1.49-12.44,5.14-.11.14.1.29.23.22A61.85,61.85,0,0,1,332,394.73.28.28,0,0,0,331.94,394.18Z" style="fill:#263238"></path><path d="M335.39,395.53c-4.47-.07-9.65,1.49-12.44,5.14-.11.14.09.29.23.23a61.28,61.28,0,0,1,12.29-4.82A.28.28,0,0,0,335.39,395.53Z" style="fill:#263238"></path><path d="M338.84,396.89c-4.47-.08-9.66,1.49-12.44,5.13-.11.15.09.3.22.23a62.09,62.09,0,0,1,12.29-4.81A.28.28,0,0,0,338.84,396.89Z" style="fill:#263238"></path><path d="M289.16,401.59c-5,0-5,7.79,0,7.79S294.18,401.59,289.16,401.59Z" style="fill:#263238"></path><path d="M333.36,380.91c-2.26-1.88-5.11-.06-6.51,1.89a23.42,23.42,0,0,0-4.1,11.42.12.12,0,0,0,.14.12.56.56,0,0,0,.81.37c3.18-2.2,6.86-4.14,9.29-7.25C334.4,385.65,335.49,382.69,333.36,380.91Zm-5.51,9.48c-1.54,1.12-3.13,2.15-4.63,3.33a70.57,70.57,0,0,1,2.54-6.62,25.07,25.07,0,0,1,1.64-3c1-1.47,5.37-5.2,5.8-.33C333.44,386.44,329.69,389.06,327.85,390.39Z" style="fill:#263238"></path><path d="M311.64,395.84c3.89.61,7.91-.49,11.74-1.07a.54.54,0,0,0,.33-.81c.06,0,.09-.13,0-.19a23.55,23.55,0,0,0-10.8-5.53c-2.35-.46-5.68.17-6,3.08S309.37,395.49,311.64,395.84ZM309,393.29c-3-3.84,2.74-4.13,4.46-3.73a26.48,26.48,0,0,1,3.26,1.08,68.15,68.15,0,0,1,6.38,3.09c-1.9.17-3.76.5-5.65.74C315.15,394.76,310.61,395.41,309,393.29Z" style="fill:#263238"></path><path d="M329,386.8l-54,.43s-52-59.94-56.24-64.13c-13.2-13-60.51-35.46-74.63-56.36-12.67-18.76.17-38.81.17-38.81h52a107.87,107.87,0,0,1-5.3,16.23s43.21,32.53,66.24,55.79C272.12,314.93,329,386.8,329,386.8Z" style="fill:#263238"></path><path d="M197.4,242a25.68,25.68,0,0,0-4.45,1.28c-1.5.53-3,1.13-4.45,1.79a85.43,85.43,0,0,0-8.36,4.41c-.08.05,0,.16.08.12,2.85-1.37,5.8-2.6,8.74-3.77l4.26-1.68a44.57,44.57,0,0,0,4.3-1.76A.21.21,0,0,0,197.4,242Z" style="fill:#455a64"></path><path d="M195.25,229.07c-.67,2.36-1.26,4.73-2,7.06-.34,1.07-.68,2.16-1.12,3.19-.37.88-.92,1.87-2,2s-1.49-.83-1.37-1.8a32.41,32.41,0,0,1,.7-3.22c.28-1.23,1.67-7.18,1.67-7.21a.14.14,0,0,0,0-.18.09.09,0,0,0-.11,0,51.06,51.06,0,0,0-2,5.82c-.33,1.13-.64,2.27-1,3.41a5.37,5.37,0,0,0-.3,2.63,2,2,0,0,0,1.81,1.57l-.13.23c-.11.23-.19.47-.29.71s-.18.48-.26.73a2.45,2.45,0,0,0-.08.37c0,.14,0,.27,0,.41a.2.2,0,0,0,.37.14,3.71,3.71,0,0,1,.23-.32,2.43,2.43,0,0,0,.18-.4c.09-.23.16-.47.23-.71s.15-.47.2-.72,0-.29.06-.43a2.79,2.79,0,0,0,1.38-.48,4.63,4.63,0,0,0,1.48-2.13c.39-1,.7-2,1-3a44.23,44.23,0,0,0,1.73-7.6A.22.22,0,0,0,195.25,229.07Z" style="fill:#455a64"></path><path d="M166.46,232.83c-.25,1.18-.43,2.36-.73,3.52s-.64,2.27-1,3.37a12.4,12.4,0,0,1-1.54,3,11.39,11.39,0,0,1-2.37,2.28A19.75,19.75,0,0,1,155.1,248a26,26,0,0,1-3.12.81,15.61,15.61,0,0,1-1.67.24,3.6,3.6,0,0,0-1.34.27.27.27,0,0,0,0,.46,4.91,4.91,0,0,0,2.47.16,18.07,18.07,0,0,0,2.64-.39,19,19,0,0,0,5-1.95,15.66,15.66,0,0,0,4.26-3.28,11.87,11.87,0,0,0,2.37-4.81,24.18,24.18,0,0,0,.92-6.6C166.68,232.73,166.48,232.71,166.46,232.83Z" style="fill:#455a64"></path><path d="M319.35,379.22c-1.41-.25-14.77-.68-17.74-.69-6,0-27.76.36-28.13.52a.2.2,0,0,0,0,.37c5.94.38,44.08.46,45.78.18C319.48,379.57,319.55,379.25,319.35,379.22Z" style="fill:#455a64"></path><path d="M199.62,309c2.77,1.77,8.4,5.7,11.08,7.59a80,80,0,0,1,7.36,5.45,39.12,39.12,0,0,1,3.24,3.45l3.18,3.67q3.18,3.67,6.31,7.39c1.18,1.4,3.24,3.51,4.36,5,.14.18,0,.59-.57,0s-2.29-2.06-3.45-3.38c-2.16-2.45-4.33-4.9-6.46-7.38s-4-4.87-6.24-7.15a50.39,50.39,0,0,0-7.29-5.71c-3-2.11-8.91-6.22-11.78-8.45C199.12,309.19,199.35,308.78,199.62,309Z" style="fill:#455a64"></path><path d="M191.86,244.55c8.89,6.24,18.08,13.21,26.43,20.13s16.63,14,24.71,21.25q3.41,3,6.73,6.16c2.25,2.11,4.45,4.73,6.69,6.82.13.12-.06.29-.18.18-4.06-3.64-8.27-7.6-12.38-11.19s-8.19-7.09-12.31-10.61q-12.41-10.62-25.11-20.88c-4.71-3.81-10.19-7.66-14.79-11.59C191.5,244.69,191.7,244.44,191.86,244.55Z" style="fill:#455a64"></path><path d="M145.89,234.09c.5-1.5,1-3,1.6-4.47,0-.08.17-.05.14,0-2.1,6.19-4.24,12.53-4.47,19.11a24.74,24.74,0,0,0,1.36,9.31,24.17,24.17,0,0,0,4.74,7.73c4.14,4.68,9.41,8.36,14.38,12.08,5.4,4.05,10.91,8,16.47,11.8s11.27,7.46,17,11,11.59,6.7,17.32,10.16a46.45,46.45,0,0,1,7.76,5.76,97.07,97.07,0,0,1,6.7,7.2q6.95,7.95,13.76,16,13.66,16.08,26.81,32.59c1.07,1.34,2.14,2.7,3.21,4.05.05.06,0,.15-.1.09Q259.08,360,245.28,343.64q-6.87-8.1-13.81-16.14c-4.43-5.11-8.69-10.54-14.33-14.4-2.73-1.86-5.64-3.44-8.51-5.07s-6-3.45-8.92-5.22q-8.81-5.3-17.34-11c-5.65-3.79-11.23-7.67-16.7-11.72q-4.09-3-8.12-6.16a76.94,76.94,0,0,1-6.69-5.66,29.91,29.91,0,0,1-5.36-6.75,22.23,22.23,0,0,1-2.66-8.56C142.16,246.55,143.85,240.11,145.89,234.09Z" style="fill:#455a64"></path><path d="M186.32,174c5.76,17.86,11.88,36.32,16.7,41.1,4.52,4.5,39.09,17.18,42.5,15.56,2.93-1.4.33-27.55-3.14-27.77-5.81-.35-26.3-6.68-27.64-7.62s-10-14.86-19-26.41C187.06,157.84,182.47,162.1,186.32,174Z" style="fill:#eb9481"></path><path d="M245.52,230.69c3,.58,16.77,2.07,20.7,1.63s15.17-2.55,15.14-5.59S278,224,278,224s4.6-1.64,4.28-4.71-5.49-2.34-5.49-2.34,4.61-2,4.08-5.06-5.62-1.45-5.62-1.45,4.3-1.65,2.81-4c-1.8-2.79-9.37,1.16-13.75,1.33-1,0-20.23-.68-20.23-.68Z" style="fill:#eb9481"></path><path d="M275.68,210.35c-5.58,2.89-8.52,3.19-14.68,2.66-.12,0-.16.17,0,.19,6,1.06,9.73,1.22,14.87-2.59C276.09,210.42,276,210.21,275.68,210.35Z" style="fill:#263238"></path><path d="M277.22,216.74c-6.05,2.5-9.24,2.85-15.73,2.78a.08.08,0,0,0,0,.16c6.36.61,10.1.68,15.82-2.61C277.56,216.92,277.5,216.63,277.22,216.74Z" style="fill:#263238"></path><path d="M277.65,224c-6,2-9.51,2.54-15.81,1.66a.12.12,0,0,0,0,.23c6.33,1.52,10.67.88,15.9-1.7C278.05,224,278,223.89,277.65,224Z" style="fill:#263238"></path><path d="M240.3,203.88s6.77-4,10.14-5.11,17.42-.61,17.48,2.43c.09,3.93-8.08,5.24-12.17,5.36,0,0,.2,9.08-5.46,11.29S240.3,203.88,240.3,203.88Z" style="fill:#eb9481"></path><path d="M267.59,202.29c-2.5,3.63-7.88,3.45-11.83,3.86a.36.36,0,0,0-.31.51c-.17,3.81-1.52,9.14-4.93,11.29a.1.1,0,0,0,.09.17c4-1.82,5.71-7,5.63-11.13,4.07-.36,9.46-.41,11.39-4.68C267.64,202.29,267.61,202.27,267.59,202.29Z" style="fill:#263238"></path><path d="M193,208.43l18.48-24.15s-9.57-11.91-15.79-17.76c-8.24-7.74-13-6.5-11.68,7.29C184.9,183,193,208.43,193,208.43Z" style="fill:#455a64"></path><path d="M203,188.94a5.38,5.38,0,0,0-2,.35,5.36,5.36,0,0,0,2,.34,5.2,5.2,0,0,0,2-.34A5.21,5.21,0,0,0,203,188.94Zm-8.4-23.42h-.26a5.47,5.47,0,0,0-2,.35,5.45,5.45,0,0,0,2,.34,6.08,6.08,0,0,0,.95-.07C195,165.92,194.8,165.71,194.57,165.52Zm-.49,30.76a5.17,5.17,0,0,0-1.63-1.15,5.64,5.64,0,0,0,2.78,2.78A5.51,5.51,0,0,0,194.08,196.28Zm-.49-15.67a5.31,5.31,0,0,0-1.14,1.63,5.31,5.31,0,0,0,1.63-1.14,5.51,5.51,0,0,0,1.15-1.63A5.35,5.35,0,0,0,193.59,180.61Zm10.24-5.43a5.29,5.29,0,0,1,.06.8,5.41,5.41,0,0,1-.35,2,5.2,5.2,0,0,1-.34-2,6.7,6.7,0,0,1,.14-1.34h0Z" style="fill:#fff"></path><path d="M204.64,193.21,193,208.43s-8.09-25.39-9-34.62c-.55-5.54-.1-9.05,1.18-10.78C189,168.77,197.62,182.27,204.64,193.21Z" style="fill:#37474f"></path><path d="M192.58,204.23c2.44-3.7,4.94-7.36,7.6-10.91q2-2.65,4-5.25c1.38-1.73,2.94-3.32,4.29-5.06.08-.1.22,0,.15.12-1.44,1.67-2.67,3.55-4,5.3s-2.69,3.51-4,5.28c-2.66,3.52-5.33,7-7.91,10.64C192.65,204.45,192.51,204.33,192.58,204.23Z" style="fill:#263238"></path><path d="M198.1,237.2c-1.49,1.33-58.88,1.71-59.16,1.29-.77-1.15,10.18-58,35.54-76.73,4.47-3.29,11.6-1.51,14.77.73,1.59,1.11,3.71,9.34,5.64,18.88C196.37,188.66,199,236.36,198.1,237.2Z" style="fill:#455a64"></path><path d="M182.18,186.45a5.85,5.85,0,0,0,0,3.93,5.69,5.69,0,0,0,0-3.93Zm11.44,22.39a5.66,5.66,0,0,0,0,3.92,5.82,5.82,0,0,0,0-3.92Zm-28.81.75a5.82,5.82,0,0,0,0,3.92,5.66,5.66,0,0,0,0-3.92Zm15.05,22.71a5.23,5.23,0,0,0-.34,2,5.45,5.45,0,0,0,.34,2,5.47,5.47,0,0,0,.35-2A5.24,5.24,0,0,0,179.86,232.3Zm-4.75-71c-.13.08-.26.16-.38.25h0a6.59,6.59,0,0,0-.12,1.24,5.25,5.25,0,0,0,.34,2,5.47,5.47,0,0,0,.35-2A6.49,6.49,0,0,0,175.11,161.34ZM157,183.41l-.4.74a8.47,8.47,0,0,0-.07.88,5.41,5.41,0,0,0,.35,2,5.2,5.2,0,0,0,.34-2A5.6,5.6,0,0,0,157,183.41Zm12.89-2.09a5.21,5.21,0,0,0-2,.35,5.4,5.4,0,0,0,2,.34,5.16,5.16,0,0,0,2-.34A5,5,0,0,0,169.93,181.32ZM168,225a5.41,5.41,0,0,0-2,.35,5.82,5.82,0,0,0,3.92,0A5.41,5.41,0,0,0,168,225ZM154.49,198.9a5.38,5.38,0,0,0-2,.35,5.82,5.82,0,0,0,3.92,0A5.41,5.41,0,0,0,154.49,198.9Zm-13.7,34.67a6,6,0,0,0-1.25.14c0,.14,0,.28-.08.41a6.68,6.68,0,0,0,1.33.14,5.16,5.16,0,0,0,2-.34A5.38,5.38,0,0,0,140.79,233.57Zm40.69-31.5a5.41,5.41,0,0,0-2,.35,5.82,5.82,0,0,0,3.92,0A5.38,5.38,0,0,0,181.48,202.07Zm11.79,23.3a5.23,5.23,0,0,0-2,.34,5.45,5.45,0,0,0,2,.35,5.26,5.26,0,0,0,2-.35A5.25,5.25,0,0,0,193.27,225.37ZM169.6,195.52a5.31,5.31,0,0,0-1.63-1.14,5.68,5.68,0,0,0,2.78,2.77A5.51,5.51,0,0,0,169.6,195.52Zm-15.7,29.95a5.14,5.14,0,0,0-1.63-1.14A5.71,5.71,0,0,0,155,227.1,5.31,5.31,0,0,0,153.9,225.47Zm28.53-52.08a5.35,5.35,0,0,0-1.64-1.14,5.33,5.33,0,0,0,1.15,1.63,5.51,5.51,0,0,0,1.63,1.15A5.35,5.35,0,0,0,182.43,173.39Zm11.65,22.89a5.17,5.17,0,0,0-1.63-1.15,5.64,5.64,0,0,0,2.78,2.78A5.51,5.51,0,0,0,194.08,196.28Zm.49-16.46a6.78,6.78,0,0,0-1,.79,5.31,5.31,0,0,0-1.14,1.63,5.31,5.31,0,0,0,1.63-1.14,7.09,7.09,0,0,0,.61-.71Zm-43.94,33.45a5.31,5.31,0,0,0-1.14,1.63,5.71,5.71,0,0,0,2.77-2.77A5.43,5.43,0,0,0,150.63,213.27Zm11.54,21.91a5.31,5.31,0,0,0-1.14,1.63A5.71,5.71,0,0,0,163.8,234,5.31,5.31,0,0,0,162.17,235.18Zm2.4-62.57a5.17,5.17,0,0,0-1.15,1.63,5.75,5.75,0,0,0,2.78-2.78A5.33,5.33,0,0,0,164.57,172.61Zm14.71,46a5.17,5.17,0,0,0-1.15,1.63,5.19,5.19,0,0,0,1.63-1.14,5.38,5.38,0,0,0,1.15-1.64A5.22,5.22,0,0,0,179.28,218.64Z" style="fill:#fff"></path><path d="M164.79,166.6c-19.78,16.66-46.11,53.12-42.59,61.33,3.92,9.15,31-11.73,31-13.24,0-1.14,11-22.48,19.3-38.9S169.68,162.48,164.79,166.6Z" style="fill:#eb9481"></path><path d="M122,227.35c2.82,6.56,13.49,9.9,39.58,20.85,3.61,1.51,21.15-21.09,17.38-22.9-4.76-2.29-23.69-10.13-25.14-10.53C141.56,211.41,120.12,222.91,122,227.35Z" style="fill:#eb9481"></path><path d="M167.26,220.64s10.3,3.87,16.92,6.71c3.69,1.59,9.78,4.88,12,7.28,3.25,3.6,14.58,20.74,10.48,23.58-3.7,2.56-11.57-13.4-11.57-13.4s9.36,15.41,4.33,17.68-11.52-17-11.52-17,9.26,16,3.7,17.56c-4.2,1.15-11.06-15.92-11.06-15.92s7.87,13.85,3.6,15.21c-4.72,1.51-12-13.84-12-13.84-11.44,1.64-17.56-2.25-21.58-5.54C149.5,242.21,167.26,220.64,167.26,220.64Z" style="fill:#eb9481"></path><path d="M192.16,239.28c1.16,1.77,2.36,3.55,3.36,5.42s1.94,3.77,2.77,5.72a35.7,35.7,0,0,1,2.48,7.9c-1.28-4.76-4.77-11.5-5.77-13.36s-1.91-3.78-2.91-5.64C192.06,239.27,192.13,239.24,192.16,239.28Z" style="fill:#263238"></path><path d="M185.35,242.78c1.39,2.32,2.86,4.58,4.14,7s2.29,4.73,3.41,7.19c.08.19-.05.17-.14,0-1.21-2.41-2.52-4.55-3.76-6.94s-2.38-4.84-3.7-7.18A0,0,0,1,1,185.35,242.78Z" style="fill:#263238"></path><path d="M179,244.73a60.8,60.8,0,0,1,5.52,11.14c.07.19-.09.15-.18,0-1.77-3.74-3.12-6.68-5.46-11C178.81,244.75,178.92,244.66,179,244.73Z" style="fill:#263238"></path><path d="M137,188.91l29.74,6.29s6.65-13.76,9.25-21.9c3.44-10.76.25-14.56-11.61-7.4C156.44,170.68,137,188.91,137,188.91Z" style="fill:#455a64"></path><path d="M145.48,190.7l.24.05a1.51,1.51,0,0,0,.11-.22Zm19.09-18.09a5.17,5.17,0,0,0-1.15,1.63,5.75,5.75,0,0,0,2.78-2.78A5.33,5.33,0,0,0,164.57,172.61Zm-14,4.12-.32.28a3.48,3.48,0,0,0,.66.36A4.32,4.32,0,0,0,150.54,176.73Zm19.39,4.59a5.21,5.21,0,0,0-2,.35,5.4,5.4,0,0,0,2,.34,5.16,5.16,0,0,0,2-.34A5,5,0,0,0,169.93,181.32Zm-13,1.75a5.66,5.66,0,0,0,0,3.92,5.82,5.82,0,0,0,0-3.92Zm18.36-20.56a3.26,3.26,0,0,0-.65-.18c0,.17,0,.34,0,.51a5.25,5.25,0,0,0,.34,2,5.47,5.47,0,0,0,.35-2C175.3,162.73,175.29,162.62,175.28,162.51Z" style="fill:#fff"></path><path d="M140.61,186.73c4.4.62,8.77,1.29,13.12,2.17q3.26.65,6.48,1.4c2.16.5,4.26,1.22,6.42,1.69a.09.09,0,1,1,0,.18c-2.12-.58-4.35-.87-6.51-1.34s-4.33-.92-6.49-1.36c-4.33-.88-8.66-1.77-13-2.56C140.45,186.89,140.5,186.72,140.61,186.73Z" style="fill:#263238"></path><path d="M162.41,194.28c1.48.16,2.94.37,4.4.6l-.36.17q1.85-4.28,3.83-8.5c1.32-2.81,2.69-5.61,4.2-8.35a84.61,84.61,0,0,1-3.32,8.75c-1.25,2.85-2.61,5.66-4.12,8.4l-.13.24-.23-.07C165.25,195.14,163.83,194.74,162.41,194.28Z" style="fill:#263238"></path><path d="M172.2,183.45c.44-.57.89-1.08,1.32-1.6l.65-.79c.23-.26.44-.53.69-.79a4.45,4.45,0,0,1-1,1.9,4.91,4.91,0,0,1-.77.74A3.43,3.43,0,0,1,172.2,183.45Z" style="fill:#263238"></path><path d="M186.73,173.81c-3.53.79-9.5-4.66-11.83-9-.16-.3,1.23-12.21,1.26-14.6,0-.49,15,3.83,15,3.83a37.78,37.78,0,0,0-1.56,9.15C189.56,163.5,190.14,173.05,186.73,173.81Z" style="fill:#eb9481"></path><path d="M191.13,154v0c0,.07-.11.36-.24.83-.21.8-.55,2.1-.81,3.59a27.17,27.17,0,0,0-.51,4.72c0,.12,0,.23,0,.33v.05c0,.2,0,.46,0,.77a9.66,9.66,0,0,1-1.46.07c-8.16-.29-10.79-10.35-11.5-14.2l.26,0c.39.07.91.19,1.54.33l.48.12c1,.24,2.18.56,3.42.88l1.23.33,2.61.72c.36.11.71.21,1,.29l1.07.3.49.14.22.07,1.24.35.6.17.25.08s0,0,0,0Z" style="fill:#263238"></path><path d="M175,132.49c-2,5.2-.2,20.7,3.35,24.36,5.15,5.32,14.08,6.39,18.73.1,4.51-6.1,1.83-26.26-2.18-29.65C189,122.32,177.89,124.82,175,132.49Z" style="fill:#eb9481"></path><path d="M197.36,133.47c-5.25,3.82-12.73-1.51-12.73-1.51a5.82,5.82,0,0,1-5.8,3.85s-.79,9.08-3.17,9.13c-3.64.08-5.13-12.22-4-14.68s4.15-3.17,4.15-3.17a5.92,5.92,0,0,1,2.37-3.67c2.43-2,11.08.34,11.08.34a8,8,0,0,1,2.11-3,2.26,2.26,0,0,1,3.25.21,5.37,5.37,0,0,0-.81,2.25c-.35,2.66,1.81,2.6,1.72.2a3.75,3.75,0,0,0-.91-2.45c1-1.61,2.75-2.17,3.84-1.36C200.37,121.05,201.72,130.29,197.36,133.47Z" style="fill:#263238"></path><path d="M177.57,145.19s-3.24-5.12-5.55-4,0,8.44,2.56,9.55a2.7,2.7,0,0,0,3.67-1.28Z" style="fill:#eb9481"></path><path d="M172.72,143.28s-.05.05,0,.07c1.82.84,2.72,2.6,3.32,4.41a1.49,1.49,0,0,0-2.2-.51s0,.11,0,.1a1.68,1.68,0,0,1,1.8.66,8.47,8.47,0,0,1,.8,1.52c.08.17.38.09.33-.1v-.05C176.93,147,175.25,143.63,172.72,143.28Z" style="fill:#263238"></path><path d="M189.51,142.51s-.07.06-.07.1c.12,1,.08,2.23-.83,2.65,0,0,0,.07,0,.06C189.76,145.07,189.79,143.47,189.51,142.51Z" style="fill:#263238"></path><path d="M188.5,141.51c-1.68,0-1.53,3.36,0,3.35S189.9,141.5,188.5,141.51Z" style="fill:#263238"></path><path d="M195.25,142.42s.08,0,.08.09c0,1,.2,2.22,1.16,2.52a0,0,0,0,1,0,.06C195.33,145,195.09,143.4,195.25,142.42Z" style="fill:#263238"></path><path d="M196.13,141.3c1.66-.2,1.94,3.13.4,3.32S194.73,141.46,196.13,141.3Z" style="fill:#263238"></path><path d="M187.11,140a12.63,12.63,0,0,0,1.28-.51,2.3,2.3,0,0,0,1.2-.77.72.72,0,0,0-.15-.85,1.74,1.74,0,0,0-1.78-.11,2.59,2.59,0,0,0-1.44,1.18A.76.76,0,0,0,187.11,140Z" style="fill:#263238"></path><path d="M197.35,139.56c-.47-.06-.89-.19-1.35-.29a2.28,2.28,0,0,1-1.31-.55.71.71,0,0,1,0-.87,1.78,1.78,0,0,1,1.73-.41,2.64,2.64,0,0,1,1.62.92A.76.76,0,0,1,197.35,139.56Z" style="fill:#263238"></path><path d="M188.7,152.17c.26.23.52.55.9.57a2.83,2.83,0,0,0,1.1-.31s.07,0,.05,0a1.4,1.4,0,0,1-1.29.62,1.13,1.13,0,0,1-.86-.88C188.58,152.16,188.66,152.14,188.7,152.17Z" style="fill:#263238"></path><path d="M189.65,149a3.57,3.57,0,0,0,2.43,1.47,4.5,4.5,0,0,0,1.27,0l.25,0a1,1,0,0,0,.22,0,.26.26,0,0,0,.2-.24h0a.43.43,0,0,0,0-.11h0V150c0-.8-.15-2-.15-2,.3.14,1.82.74,1.78.32a53.46,53.46,0,0,0-1.84-10.61c0-.11-.21-.08-.19,0,.21,3.33,1,6.59,1.28,9.92a6.61,6.61,0,0,0-1.69-.44c-.12,0,.29,2.34.27,2.7v0a4.87,4.87,0,0,1-3.7-1C189.67,148.87,189.59,148.94,189.65,149Z" style="fill:#263238"></path><path d="M192.86,150.1a4.16,4.16,0,0,1-1.62,1.38,1.91,1.91,0,0,1-1.14.12c-.84-.18-.89-.94-.77-1.6a4.43,4.43,0,0,1,.33-1A5.41,5.41,0,0,0,192.86,150.1Z" style="fill:#263238"></path><path d="M191.24,151.48a1.91,1.91,0,0,1-1.14.12c-.84-.18-.89-.94-.77-1.6A1.94,1.94,0,0,1,191.24,151.48Z" style="fill:#ff99ba"></path></g><g id="freepik--character-2--inject-23"><path d="M224.94,152.26c-2.29-3.83-7.13-5.56-12.16-5.55s-11.28,1.25-13.33,8.88c-1.66,6.19-.81,12.7-2.21,19.69s-13,22.48-1.34,33.32c10.48,9.73,36,7.45,39.76-7.8,3-12.08-10-26.23-10.64-31.36S227.44,156.45,224.94,152.26Z" style="fill:#263238"></path><path d="M225.77,159.55a26.4,26.4,0,0,0,.13,10.73,10.06,10.06,0,0,0,1,2.6c.45.81,1,1.59,1.44,2.37,1,1.55,2,3.08,2.9,4.65a36.11,36.11,0,0,1,4.13,9.88,26.9,26.9,0,0,1,.35,10.54,22.93,22.93,0,0,0,.86-5.28,24.4,24.4,0,0,0-.41-5.39,31.89,31.89,0,0,0-4-10.2c-.93-1.6-2-3.14-3-4.67a18.23,18.23,0,0,1-2.55-4.69,21.68,21.68,0,0,1-.88-5.21A39.49,39.49,0,0,1,225.77,159.55Z" style="fill:#263238"></path><path d="M198.77,160.92c-.61,3.58-1.07,7.18-1.86,10.7a41.86,41.86,0,0,1-1.49,5.17c-.61,1.66-1.48,3.28-2.27,4.93s-1.53,3.33-2.17,5.05a29.71,29.71,0,0,0-1.42,5.33,18.84,18.84,0,0,0,0,5.51,13.41,13.41,0,0,0,2.24,5.1,14.18,14.18,0,0,1-1.72-5.16,18.26,18.26,0,0,1,.29-5.32,44.94,44.94,0,0,1,3.75-10.1,51.92,51.92,0,0,0,2.25-5,33.27,33.27,0,0,0,1.34-5.33A86.05,86.05,0,0,0,198.77,160.92Z" style="fill:#263238"></path><path d="M468.41,278c-2.3.82-68.71,2.14-71.27.59-.28-.17-.13-3.1-.92-10.7,0-.36-1.51-1.8-3.83-3.84-8.69-7.66-29.14-23.85-29.14-23.85l33.81-27.94,31.3,32.33,8.14,8.4s26.79,13.55,29.42,15.55S470.72,277.2,468.41,278Z" style="fill:#ad6359"></path><path d="M468.41,278c-2.3.82-68.71,2.14-71.27.59-.28-.17-.13-3.1-.92-10.7,0-.36-1.51-1.8-3.83-3.84,6.86-3.59,27.57-14.88,36-19.46l8.14,8.4s26.79,13.55,29.42,15.55S470.72,277.2,468.41,278Z" style="fill:#dbdbdb"></path><path d="M410.46,276a10.19,10.19,0,0,0-3.29-6.12,9.45,9.45,0,0,0-4.22-2.1,11.45,11.45,0,0,0-4.7.13.07.07,0,0,0,0,.13,9.7,9.7,0,0,1,8.38,2.59,9.42,9.42,0,0,1,2.35,3.58,9.7,9.7,0,0,1,.52,2,9.3,9.3,0,0,1,.09,1c0,.36-.05.64.21.92a.36.36,0,0,0,.48,0C410.8,277.83,410.54,276.61,410.46,276Z" style="fill:#fff"></path><path d="M458.44,264.42a7.15,7.15,0,0,0-4,1.64,18.3,18.3,0,0,0-3.33,3.25,18.87,18.87,0,0,0-2.42,3.89,19.46,19.46,0,0,0-.81,2.08,7.45,7.45,0,0,0-.5,2.22.14.14,0,0,0,.25.07c.31-.58.48-1.27.73-1.88a22,22,0,0,1,.95-2,24.23,24.23,0,0,1,2.38-3.64,14.06,14.06,0,0,1,6.87-5A.31.31,0,0,0,458.44,264.42Z" style="fill:#fff"></path><path d="M430.22,249.5c-8.44,4.41-16.83,8.87-25.31,13.19-2.4,1.23-4.79,2.48-7.21,3.67-.08,0,0,.15.07.11A265.53,265.53,0,0,0,423.46,254c2.35-1.33,4.66-2.74,7-4.17A.19.19,0,0,0,430.22,249.5Z" style="fill:#fff"></path><path d="M398.59,265.24a.91.91,0,0,0-.09-.17l-.16-.14-.29-.27c-.21-.19-.43-.37-.65-.55-.44-.34-.89-.65-1.34-1-.07,0-.15.06-.09.11q.63.53,1.23,1.08c.19.19.39.36.59.54l.31.29a.73.73,0,0,0,.32.23A.14.14,0,0,0,398.59,265.24Z" style="fill:#fff"></path><path d="M402.53,263.13a.35.35,0,0,0-.09-.17l-.16-.15-.29-.26c-.21-.19-.43-.38-.65-.55-.44-.34-.89-.65-1.34-1-.07,0-.15.06-.09.11q.63.53,1.23,1.08l.59.54.31.29a.76.76,0,0,0,.33.23C402.46,263.32,402.57,263.22,402.53,263.13Z" style="fill:#fff"></path><path d="M406.47,261a.35.35,0,0,0-.09-.17l-.16-.15-.29-.27c-.21-.18-.43-.37-.65-.54-.44-.34-.89-.65-1.34-1a.06.06,0,0,0-.08.1c.41.35.82.72,1.22,1.09l.59.54.31.29a.86.86,0,0,0,.33.23C406.4,261.21,406.51,261.11,406.47,261Z" style="fill:#fff"></path><path d="M410.41,258.9a.37.37,0,0,0-.09-.16l-.15-.15-.3-.27c-.21-.19-.43-.37-.65-.54-.44-.34-.88-.66-1.34-1-.06-.05-.14.05-.08.1.42.35.82.72,1.22,1.09l.59.54.31.29a.94.94,0,0,0,.33.23A.13.13,0,0,0,410.41,258.9Z" style="fill:#fff"></path><path d="M414.35,256.79a.4.4,0,0,0-.09-.17l-.15-.14-.3-.27c-.21-.19-.43-.37-.65-.54-.43-.34-.88-.66-1.34-1-.06,0-.14.06-.08.11.42.35.82.72,1.22,1.09l.59.54c.11.09.21.19.31.29a1.09,1.09,0,0,0,.33.23A.13.13,0,0,0,414.35,256.79Z" style="fill:#fff"></path><path d="M418.29,254.68a.4.4,0,0,0-.09-.17l-.15-.14-.3-.27c-.21-.19-.42-.37-.65-.54-.43-.34-.88-.66-1.34-1-.06,0-.14.06-.08.11.42.35.82.72,1.22,1.09l.59.54.31.28a1,1,0,0,0,.33.24A.13.13,0,0,0,418.29,254.68Z" style="fill:#fff"></path><path d="M422.23,252.57a.4.4,0,0,0-.09-.17l-.15-.14-.3-.27c-.21-.19-.42-.37-.65-.54-.43-.34-.88-.66-1.34-1-.06,0-.14.06-.08.11.42.35.82.72,1.22,1.09l.59.54.31.28a1,1,0,0,0,.33.24C422.16,252.76,422.27,252.67,422.23,252.57Z" style="fill:#fff"></path><path d="M426.17,250.46a.4.4,0,0,0-.09-.17,1,1,0,0,0-.15-.14l-.3-.27c-.21-.19-.42-.37-.65-.55-.43-.33-.88-.65-1.34-1-.06,0-.14.06-.08.11.42.35.82.71,1.22,1.09l.59.53.31.29a.82.82,0,0,0,.33.23C426.1,250.65,426.21,250.55,426.17,250.46Z" style="fill:#fff"></path><path d="M430.12,248.35a.59.59,0,0,0-.1-.17,1,1,0,0,0-.15-.14l-.3-.27c-.21-.19-.42-.37-.65-.55-.43-.33-.88-.65-1.34-1-.06,0-.14.06-.08.11.42.35.83.71,1.23,1.09l.59.53.31.29a.73.73,0,0,0,.32.23A.14.14,0,0,0,430.12,248.35Z" style="fill:#fff"></path><path d="M417.72,230.79l-5.1,5.83-16.48,18.81-9,10.28S353.85,234,340.78,226.87h0a16.27,16.27,0,0,0-2.3-1.05h0a9.31,9.31,0,0,0-3.33.33h0c-13.06,3-53.72,22.17-83.51,30.73l7.08-23,3.13-10.23c31.46-15.5,66.9-43.34,88.33-40.75C373.38,185.68,417.72,230.79,417.72,230.79Z" style="fill:#455a64"></path><path d="M409.71,228.67c-5.23,5.66-3.81,4-9,9.68-2.53,2.8-15.28,16.83-17.2,19.83,0,.07.05.15.11.1,2.75-2.27,15.2-16.57,17.68-19.42,5.06-5.81,3.55-4.19,8.55-10.05A.11.11,0,1,0,409.71,228.67Z" style="fill:#263238"></path><path d="M335.08,226.14c-13.06,3-53.72,22.17-83.51,30.73l7.08-23Z" style="fill:#263238"></path><path d="M396.14,255.43l-9,10.28S353.85,234,340.78,226.87Z" style="fill:#263238"></path><path d="M389.15,259c-7.66-6.29-43.65-38-48.55-38-4.46,0-82.94,30-84.11,30.43-.08,0,0,.16,0,.13,9.32-3.47,81.5-29.65,83.85-29.57,4.89.16,47.43,36.66,48.41,37.39C389.05,259.57,389.41,259.22,389.15,259Z" style="fill:#263238"></path><path d="M218.15,233.62s-4.9,28.3,9.25,39.42,117.82,9.78,133.55,4.7,16.23-30.47-1-36.35c-16.35-5.6-88.88-8.81-90.6-9.5s-6.74-8.71-6.74-8.71Z" style="fill:#455a64"></path><path d="M239.63,232.91c0-.12-.21-.08-.21,0a14,14,0,0,1-3.27,9c-2.41,2.78-6,4.34-9.18,6-.31.16-.08.64.24.54A28,28,0,0,0,232.9,246a13.85,13.85,0,0,0,4.27-3.56A12.2,12.2,0,0,0,239.63,232.91Z" style="fill:#263238"></path><path d="M267.58,233.18c-.71-.92-1.5-1.79-2.25-2.68-1.77-2.11-3.55-4.23-5.41-6.26-.17-.2-.52.08-.35.29,1.25,1.63,2.57,3.22,3.87,4.81.67.82,1.34,1.63,2,2.44a14.81,14.81,0,0,1,1.87,2.39c.49.9-.15,1.68-1.09,1.78a3.26,3.26,0,0,1-2.26-.83,30.5,30.5,0,0,1-3.84-4.11c-.75-.84-1.49-1.68-2.25-2.51s-1.66-1.71-2.47-2.59c0-.06-.15,0-.1.08.7,1,1.35,2,2.05,2.94s1.42,1.91,2.14,2.86,1.4,1.78,2.13,2.64a8.83,8.83,0,0,0,2.16,1.93c1.35.79,3.69,1,4.4-.78A2.42,2.42,0,0,0,267.58,233.18Z" style="fill:#263238"></path><path d="M358.8,277.83c-5.41.1-10.83.42-16.24.53s-10.75.15-16.12.1q-16.19-.16-32.35-1.26c-10.88-.75-22.62-1.84-33.42-3.33-5.17-.72-10.42-1.32-15.53-2.42a24.44,24.44,0,0,1-12.24-6.25c-7-6.79-9.72-16.77-10.84-26.31-.15-1.28-.27-2.56-.38-3.84,0-.09-.14-.09-.13,0,.63,9.78,2.15,20,8.3,27.83a24.44,24.44,0,0,0,10,7.78c4.84,1.94,10.21,2.4,15.32,3.09,10.85,1.47,22.64,2.61,33.55,3.45s22,1.39,33,1.55,22,0,33-.53c1.34-.07,2.68-.15,4-.27C358.88,278,358.88,277.83,358.8,277.83Z" style="fill:#263238"></path><path d="M216.68,194.83c17.19,11.74,32.23,17.68,39.31,18.23,5.71.44,34.41-2.38,35.66-3,3.07-1.45.82-24.8-2.6-26-.79-.27-22.09,7.33-31.75,8.6-1.77.23-12-3.3-27.36-5.64-10.09-1.54-16.1-2.31-16.86.66C212.66,189.37,213.26,192.5,216.68,194.83Z" style="fill:#ad6359"></path><path d="M289.55,210.25a87,87,0,0,0,11.16.17c2.92-.27,11.32-1.27,11.34-4.52,0-2.21-5-2.2-8.53-2.28-1.86,0-4.49-.94-4.43-2.15.12-2.13,5-1.94,8.29-1.43,6.44,1,15.59,3.73,17.74-.19.82-1.48-1.31-2.76-4.07-3.75,4.16.79,8.4,1.1,9.37-.51a1.89,1.89,0,0,0-.55-2.54,2.51,2.51,0,0,0,2.42-1.41c.64-1.56-.55-3-2.41-4.28a1.41,1.41,0,0,0,.73-1c.92-4.41-14.53-9.95-18.88-9.33-12.8,1.81-24.85,7.72-24.85,7.72C283.73,190.19,289.54,210.24,289.55,210.25Z" style="fill:#ad6359"></path><path d="M306,193.63c5.14-.54,9.51.15,15.5,2.65.12.05.22-.11.1-.17-5.64-3-8.94-3.78-15.67-2.8C305.61,193.36,305.69,193.66,306,193.63Z" style="fill:#263238"></path><path d="M307.88,187.16c9.26-.46,15.43,3.48,21.92,5.9.09,0,.13-.08.05-.12-6.12-2.84-11.21-6.92-22-6.13C307.59,186.83,307.56,187.17,307.88,187.16Z" style="fill:#263238"></path><path d="M310.53,181.34c7.37-.31,12.9,3,18.91,5.89a.12.12,0,0,0,.12-.21c-5.84-3.56-11.66-6.89-19-5.88C310.14,181.2,310.11,181.36,310.53,181.34Z" style="fill:#263238"></path><path d="M234.46,208.28l6-20.77s-14.6-3.86-23.69-3.6-7.82,5.59-1,11.28S234.46,208.28,234.46,208.28Z" style="fill:#ebebeb"></path><path d="M218,183.9l-7.69,4a3,3,0,0,1,0-1l5.71-3,.71,0C217.17,183.89,217.58,183.89,218,183.9Zm3.45.17-10.6,5.53c.12.25.27.5.42.76l11.78-6.14Zm4.63.53-13.78,7.19a8.75,8.75,0,0,0,.58.68l14.66-7.65Zm4.3.71-16.24,8.46c.22.22.44.42.68.63l16.93-8.83Zm4.08.81-18.21,9.5.73.6,18.81-9.81Zm3.95.88-19.93,10.4.78.58,20.43-10.66Zm-17.6,12.13c.27.19.53.39.8.57l18-9.4.34-1.16Zm2.39,1.71.8.56,14.63-7.63.33-1.16Zm2.43,1.67.82.56,11.19-5.84.33-1.15Zm2.45,1.67.84.54,7.72-4,.33-1.16Zm2.51,1.63.83.55,4.22-2.2L236,203Zm2.53,1.63.85.55.66-.35.34-1.17Z" style="fill:#dbdbdb"></path><path d="M235.38,187.45A138.13,138.13,0,0,0,230,205s.13.08.14.05c1.76-4.7,4.54-14.31,5.45-17.53C235.6,187.46,235.4,187.39,235.38,187.45Z" style="fill:#263238"></path><path d="M264.27,224c.37,2.55-45.38,34.7-47.44,35.05,0,0-9.6-26.18-14-48.88-4.71-24.31,9-25.76,14.62-25,6.69.88,24.12,9.17,26.47,11.44,3.89,3.75,3.41,11.15,3.41,11.15Z" style="fill:#ebebeb"></path><path d="M212.28,185.29l-5.42,2.45A12.24,12.24,0,0,1,212.28,185.29Zm5.17-.14-.49-.06-12.77,5.76a10.54,10.54,0,0,0-.65,1.25l15-6.76A10.3,10.3,0,0,0,217.45,185.15Zm3.77.89L202.7,194.4c-.1.34-.2.7-.28,1.08l20.05-9Zm3.63,1.23-22.78,10.28c0,.32-.08.66-.1,1l24-10.85C225.61,187.55,225.23,187.4,224.85,187.27Zm3.4,1.33-26.38,11.9v1l27.48-12.4Zm3.26,1.39-29.57,13.35c0,.3,0,.6.07.92l30.56-13.79Zm3.15,1.44-32.47,14.66c0,.29.07.59.12.89l33.38-15.06Zm3.06,1.49-35.13,15.85c0,.3.1.59.16.89l36-16.23Zm2.93,1.55-37.56,16.95c0,.29.11.58.17.87L241.58,195C241.3,194.83,241,194.65,240.65,194.47Zm3.27,2.12a4.76,4.76,0,0,0-.58-.48L203.62,214c.07.29.13.58.19.87l40.27-18.17Zm1.27,1.56-41,18.49.21.86,41.21-18.59A7.07,7.07,0,0,0,245.19,198.15Zm-40.38,21.08c.06.29.13.58.21.86l41.57-18.76-.27-.83Zm.62,2.58c.08.29.15.58.22.87L247.13,204c0-.29-.08-.59-.13-.9Zm.66,2.58c.07.29.15.57.22.86l41-18.52c0-.27,0-.58,0-.94Zm41.88-16L206.76,227c.07.29.15.57.23.85L248.65,209Zm2,1.94-42.54,19.2c.07.29.15.57.23.85l43-19.4Zm2,1.95L208.17,232c.07.29.15.57.24.85l44.29-20Zm2,1.95-45.17,20.38c.08.28.17.56.25.85l45.6-20.58Zm2,2-46.46,21c.08.28.17.56.26.84l46.87-21.16Zm2,1.95L210.4,239.64c.09.28.17.56.26.84l48.14-21.73Zm2,2-49,22.1c.09.28.17.56.26.84l49.39-22.29Zm2,1.95L212,244.66c.08.28.18.55.27.83l50.63-22.85Zm2,1.95-51.45,23.21.27.83,50.35-22.72c.59-.62.91-1.06.87-1.28ZM213.6,249.66c.09.29.17.57.27.84l42.23-19.06c1-.78,1.93-1.52,2.78-2.22Zm.82,2.49c.1.29.2.56.28.83l32-14.42c1.12-.82,2.22-1.64,3.28-2.44Zm.85,2.48c.1.29.2.56.29.83L236,246.23c1.21-.86,2.44-1.73,3.67-2.62Zm.86,2.48c.11.31.22.59.29.82l7.78-3.51c1.27-.85,2.66-1.8,4.14-2.82Z" style="fill:#dbdbdb"></path><path d="M245,197.42a15,15,0,0,0-4.06-3.09c-1.62-.92-3.3-1.76-5-2.56l-.17-.08h0l-.48-.38c-.29-.23-.61-.45-.92-.66a23,23,0,0,0-2.05-1.16s-.09,0,0,.07c.66.46,1.32.93,2,1.36.13.09.26.18.4.26-1.59-.73-3.19-1.42-4.84-2-.05,0-.09.06,0,.08,3.26,1.69,6.59,3.23,9.8,5a20.38,20.38,0,0,1,4.13,2.88,9.92,9.92,0,0,1,2.69,4.52,17.9,17.9,0,0,1,.56,3c.12,1,.28,2.09.37,3.13a.07.07,0,0,0,.14,0,24.57,24.57,0,0,0-.24-5.55A10.54,10.54,0,0,0,245,197.42Z" style="fill:#263238"></path><path d="M252.8,216.13a1.66,1.66,0,0,1,0,.32,2.26,2.26,0,0,1-4,1.48,1.31,1.31,0,0,1-.55.13,1.24,1.24,0,0,1-1.24-1.24,1.1,1.1,0,0,1,.07-.41,2.24,2.24,0,0,1-.52-1.45,2.26,2.26,0,0,1,2.25-2.26,2.24,2.24,0,0,1,1.35.45,1.28,1.28,0,0,1,1.14-.72,1.26,1.26,0,0,1,1.26,1.27v.05a1.24,1.24,0,0,1,.18,2.38Z" style="fill:#fff"></path><path d="M250.5,214.08a1.26,1.26,0,0,1,.61-.23,1.17,1.17,0,0,1,.66.1,1.2,1.2,0,0,1,.5.47,1.64,1.64,0,0,1,.14.3l.06.31a2.4,2.4,0,0,1-.18-.26c-.07-.07-.12-.16-.19-.23a1.41,1.41,0,0,0-.44-.34A2,2,0,0,0,250.5,214.08Z" style="fill:#A627FF"></path><path d="M248.89,217.22a1.3,1.3,0,0,1-.07-.65,1.22,1.22,0,0,1,1.18-1l.33,0-.3.11c-.09,0-.19.07-.28.12a1.34,1.34,0,0,0-.44.34A2,2,0,0,0,248.89,217.22Z" style="fill:#A627FF"></path><path d="M248.36,214.9a.7.7,0,0,1,0-.43.76.76,0,0,1,.28-.36.78.78,0,0,1,.44-.13.74.74,0,0,1,.41.13l-.39.08a.89.89,0,0,0-.31.15A2,2,0,0,0,248.36,214.9Z" style="fill:#A627FF"></path><path d="M279.11,212.46a1.67,1.67,0,0,1,0,.32,2.26,2.26,0,0,1-4,1.48,1.24,1.24,0,0,1-1.79-1.12,1.34,1.34,0,0,1,.07-.4,2.29,2.29,0,0,1-.52-1.45,2.26,2.26,0,0,1,3.61-1.81,1.24,1.24,0,0,1,1.14-.72,1.27,1.27,0,0,1,1.26,1.27v0a1.24,1.24,0,0,1,1,1.22A1.23,1.23,0,0,1,279.11,212.46Z" style="fill:#fff"></path><path d="M276.81,210.41a1.16,1.16,0,0,1,.6-.23,1.2,1.2,0,0,1,.67.1,1.24,1.24,0,0,1,.5.46,1.6,1.6,0,0,1,.13.3,2,2,0,0,1,.06.32,2.4,2.4,0,0,1-.18-.26,2,2,0,0,0-.18-.23,1.34,1.34,0,0,0-.45-.34A2,2,0,0,0,276.81,210.41Z" style="fill:#A627FF"></path><path d="M275.2,213.55a1.3,1.3,0,0,1-.07-.65,1.18,1.18,0,0,1,.28-.61,1.21,1.21,0,0,1,.57-.36,1.26,1.26,0,0,1,.33-.05l.32,0c-.1,0-.2.07-.29.11a2.36,2.36,0,0,0-.28.12,1.5,1.5,0,0,0-.45.33A2.11,2.11,0,0,0,275.2,213.55Z" style="fill:#A627FF"></path><path d="M274.67,211.22a.75.75,0,0,1,0-.42.85.85,0,0,1,.29-.36.69.69,0,0,1,.44-.13.74.74,0,0,1,.41.13,3.33,3.33,0,0,0-.39.08,1,1,0,0,0-.31.14A1.91,1.91,0,0,0,274.67,211.22Z" style="fill:#A627FF"></path><path d="M286.37,211.74a1.66,1.66,0,0,1,0,.32,2.26,2.26,0,0,1-4,1.48,1.3,1.3,0,0,1-.55.12,1.23,1.23,0,0,1-1.24-1.24,1.09,1.09,0,0,1,.07-.4,2.26,2.26,0,0,1,3.08-3.26,1.26,1.26,0,0,1,2.4.55v0a1.24,1.24,0,0,1,.18,2.39Z" style="fill:#fff"></path><path d="M284.07,209.69a1.31,1.31,0,0,1,.61-.24,1.27,1.27,0,0,1,.66.11,1.24,1.24,0,0,1,.5.46,1.64,1.64,0,0,1,.14.3,1.8,1.8,0,0,1,.06.32c-.07-.09-.12-.18-.18-.26s-.12-.16-.19-.23a1.41,1.41,0,0,0-.44-.34A2,2,0,0,0,284.07,209.69Z" style="fill:#A627FF"></path><path d="M282.46,212.83a1.3,1.3,0,0,1-.07-.65,1.14,1.14,0,0,1,.86-1,1.8,1.8,0,0,1,.32-.06c.11,0,.22,0,.33,0l-.3.11a2.21,2.21,0,0,0-.27.12,1.38,1.38,0,0,0-.45.33A2,2,0,0,0,282.46,212.83Z" style="fill:#A627FF"></path><path d="M281.93,210.5a.72.72,0,0,1,.05-.43.78.78,0,0,1,.28-.35.71.71,0,0,1,.44-.13.74.74,0,0,1,.41.13,3.82,3.82,0,0,0-.39.08,1.23,1.23,0,0,0-.31.14A2.1,2.1,0,0,0,281.93,210.5Z" style="fill:#A627FF"></path><path d="M265.43,213.38c0,.11,0,.22,0,.33a2.26,2.26,0,0,1-4,1.47,1.27,1.27,0,0,1-.55.13,1.24,1.24,0,0,1-1.24-1.24,1.14,1.14,0,0,1,.07-.41,2.21,2.21,0,0,1-.52-1.44A2.26,2.26,0,0,1,261.5,210a2.22,2.22,0,0,1,1.34.44,1.27,1.27,0,0,1,2.41.55.09.09,0,0,1,0,.05,1.24,1.24,0,0,1,.19,2.38Z" style="fill:#fff"></path><path d="M263.12,211.34a1.25,1.25,0,0,1,.61-.24,1.21,1.21,0,0,1,.67.11,1.14,1.14,0,0,1,.49.46,1.17,1.17,0,0,1,.14.3,1.65,1.65,0,0,1,.06.32c-.07-.09-.12-.18-.18-.26s-.12-.17-.19-.24a1.31,1.31,0,0,0-.44-.34A1.94,1.94,0,0,0,263.12,211.34Z" style="fill:#A627FF"></path><path d="M261.52,214.47a1.26,1.26,0,0,1,.21-1.26,1.19,1.19,0,0,1,.57-.36,1.88,1.88,0,0,1,.33,0l.32,0-.3.1c-.09,0-.19.07-.27.12a1.28,1.28,0,0,0-.45.34A2,2,0,0,0,261.52,214.47Z" style="fill:#A627FF"></path><path d="M261,212.15a.72.72,0,0,1,0-.43.73.73,0,0,1,.28-.35.71.71,0,0,1,.44-.13.66.66,0,0,1,.41.12c-.14,0-.27,0-.38.09a1,1,0,0,0-.31.14A1.83,1.83,0,0,0,261,212.15Z" style="fill:#A627FF"></path><path d="M257.12,212.89a1.68,1.68,0,0,1-1.68,1.67h0a1.22,1.22,0,0,1-2.37,0,2,2,0,0,1,.1-4.06,2.06,2.06,0,0,1,1,.23,1.23,1.23,0,0,1,2.28.77A1.69,1.69,0,0,1,257.12,212.89Z" style="fill:#fff"></path><path d="M254.34,211.22a1.25,1.25,0,0,1,.64-.09,1.31,1.31,0,0,1,.62.26,1.15,1.15,0,0,1,.38.57,1.65,1.65,0,0,1,.06.32,1.69,1.69,0,0,1,0,.32c0-.1-.08-.2-.12-.29a1.34,1.34,0,0,0-.13-.27,1.27,1.27,0,0,0-.35-.44A2,2,0,0,0,254.34,211.22Z" style="fill:#A627FF"></path><path d="M252.2,212.77a.71.71,0,0,1,0-.43.82.82,0,0,1,.29-.35.69.69,0,0,1,.44-.13.74.74,0,0,1,.41.13,3.33,3.33,0,0,0-.39.08,1,1,0,0,0-.31.14A1.69,1.69,0,0,0,252.2,212.77Z" style="fill:#A627FF"></path><path d="M254.1,213.5a.79.79,0,0,1,.85.07.76.76,0,0,1,.27.8c-.07-.12-.13-.24-.2-.34a.92.92,0,0,0-.23-.25A2.21,2.21,0,0,0,254.1,213.5Z" style="fill:#A627FF"></path><path d="M281.74,214.55a1.67,1.67,0,0,1-1.67,1.67h0a1.22,1.22,0,0,1-2.37,0,2,2,0,0,1,.1-4.06,1.93,1.93,0,0,1,1,.24,1.22,1.22,0,0,1,2.3.57,1.11,1.11,0,0,1,0,.19A1.66,1.66,0,0,1,281.74,214.55Z" style="fill:#fff"></path><path d="M279,212.89a1.19,1.19,0,0,1,1.64.73,1.23,1.23,0,0,1,.07.32c0,.11,0,.22,0,.33a1.82,1.82,0,0,1-.11-.3c-.05-.09-.08-.19-.13-.27a1.35,1.35,0,0,0-.35-.43A2,2,0,0,0,279,212.89Z" style="fill:#A627FF"></path><path d="M276.82,214.43a.72.72,0,0,1,.05-.43.78.78,0,0,1,.28-.35.71.71,0,0,1,.44-.13.74.74,0,0,1,.41.13,3.82,3.82,0,0,0-.39.08,1.23,1.23,0,0,0-.31.14A2.27,2.27,0,0,0,276.82,214.43Z" style="fill:#A627FF"></path><path d="M278.73,215.16a.84.84,0,0,1,.42-.09.8.8,0,0,1,.42.16.74.74,0,0,1,.27.37.82.82,0,0,1,0,.44c-.08-.13-.13-.25-.2-.35a.91.91,0,0,0-.24-.24A2,2,0,0,0,278.73,215.16Z" style="fill:#A627FF"></path><path d="M270.37,215.28A1.67,1.67,0,0,1,268.7,217h0a1.21,1.21,0,0,1-2.36,0,2,2,0,1,1,1.05-3.82,1.22,1.22,0,0,1,2.3.57,1.11,1.11,0,0,1,0,.19A1.68,1.68,0,0,1,270.37,215.28Z" style="fill:#fff"></path><path d="M267.59,213.62a1.17,1.17,0,0,1,.64-.09,1.14,1.14,0,0,1,.63.26,1.11,1.11,0,0,1,.37.56,1.23,1.23,0,0,1,.07.32,1.83,1.83,0,0,1,0,.33l-.11-.3c-.05-.09-.08-.18-.13-.27a1.35,1.35,0,0,0-.35-.43A2,2,0,0,0,267.59,213.62Z" style="fill:#A627FF"></path><path d="M265.45,215.16a.68.68,0,0,1,.05-.42.76.76,0,0,1,.28-.36.78.78,0,0,1,.44-.13.74.74,0,0,1,.41.13l-.38.08a1,1,0,0,0-.31.14A2.1,2.1,0,0,0,265.45,215.16Z" style="fill:#A627FF"></path><path d="M267.36,215.9a.75.75,0,0,1,.42-.1.87.87,0,0,1,.43.16.79.79,0,0,1,.26.37.82.82,0,0,1,0,.44c-.08-.13-.13-.25-.2-.34a.82.82,0,0,0-.24-.25A1.77,1.77,0,0,0,267.36,215.9Z" style="fill:#A627FF"></path><path d="M292.74,213.08a1.67,1.67,0,0,1-1.67,1.67h0a1.21,1.21,0,0,1-2.36,0,2,2,0,1,1,1.05-3.82,1.22,1.22,0,0,1,2.28.77A1.66,1.66,0,0,1,292.74,213.08Z" style="fill:#fff"></path><path d="M290,211.41a1.27,1.27,0,0,1,.64-.09,1.22,1.22,0,0,1,.63.26,1.41,1.41,0,0,1,.44.89,1.67,1.67,0,0,1,0,.32c0-.1-.07-.2-.11-.29s-.08-.19-.13-.27a1.39,1.39,0,0,0-.35-.44A2.07,2.07,0,0,0,290,211.41Z" style="fill:#A627FF"></path><path d="M287.82,213a.72.72,0,0,1,.05-.43.73.73,0,0,1,.28-.35.71.71,0,0,1,.44-.13.82.82,0,0,1,.41.12c-.14,0-.27.05-.38.09a1,1,0,0,0-.31.14A1.83,1.83,0,0,0,287.82,213Z" style="fill:#A627FF"></path><path d="M289.73,213.69a.74.74,0,0,1,.42-.09.79.79,0,0,1,.43.16.76.76,0,0,1,.27.8c-.08-.12-.13-.24-.2-.34a1.14,1.14,0,0,0-.24-.25A1.77,1.77,0,0,0,289.73,213.69Z" style="fill:#A627FF"></path><path d="M284.92,215.35a1.67,1.67,0,0,1-1.67,1.67h0a1.21,1.21,0,0,1-2.36,0,2,2,0,1,1,1-3.82,1.22,1.22,0,0,1,2.28.77A1.66,1.66,0,0,1,284.92,215.35Z" style="fill:#fff"></path><path d="M282.14,213.68a1.27,1.27,0,0,1,.64-.09,1.22,1.22,0,0,1,.63.26,1.41,1.41,0,0,1,.44.89,1.67,1.67,0,0,1,0,.32c0-.1-.07-.2-.11-.29s-.08-.19-.13-.27a1.39,1.39,0,0,0-.35-.44A2.07,2.07,0,0,0,282.14,213.68Z" style="fill:#A627FF"></path><path d="M280,215.23a.72.72,0,0,1,.05-.43.73.73,0,0,1,.28-.35.71.71,0,0,1,.44-.13.82.82,0,0,1,.41.12c-.14,0-.27.05-.38.09a1,1,0,0,0-.31.14A1.83,1.83,0,0,0,280,215.23Z" style="fill:#A627FF"></path><path d="M281.91,216a.74.74,0,0,1,.42-.09.86.86,0,0,1,.43.15.77.77,0,0,1,.26.38.79.79,0,0,1,0,.43c-.08-.12-.13-.24-.2-.34a1.14,1.14,0,0,0-.24-.25A1.77,1.77,0,0,0,281.91,216Z" style="fill:#A627FF"></path><path d="M260.52,216.56a1.9,1.9,0,0,1-1.9,1.89,1.84,1.84,0,0,1-.91-.23,1.44,1.44,0,0,1-2.68-.48,1.25,1.25,0,0,1-.84-1.18,1.28,1.28,0,0,1,1.17-1.27,1.78,1.78,0,0,1,0-.41,2,2,0,0,1,4-.1A1.91,1.91,0,0,1,260.52,216.56Z" style="fill:#fff"></path><path d="M257.74,214.78a1.17,1.17,0,0,1,.64-.09,1.14,1.14,0,0,1,.63.26,1.11,1.11,0,0,1,.37.56,1.23,1.23,0,0,1,.07.32,1.83,1.83,0,0,1,0,.33l-.11-.3c-.05-.09-.08-.18-.13-.27a1.47,1.47,0,0,0-.35-.43A2,2,0,0,0,257.74,214.78Z" style="fill:#A627FF"></path><path d="M255.6,216.33a.7.7,0,0,1,.05-.43.76.76,0,0,1,.28-.36.78.78,0,0,1,.44-.13.74.74,0,0,1,.41.13l-.38.08a.81.81,0,0,0-.31.15A1.83,1.83,0,0,0,255.6,216.33Z" style="fill:#A627FF"></path><path d="M257.51,217.06a.67.67,0,0,1,.42-.09.73.73,0,0,1,.69.53.79.79,0,0,1,0,.43c-.08-.13-.13-.24-.2-.34a.82.82,0,0,0-.24-.25A1.77,1.77,0,0,0,257.51,217.06Z" style="fill:#A627FF"></path><path d="M265.35,218.23a1.9,1.9,0,0,1-1.9,1.9,1.87,1.87,0,0,1-.91-.24,1.45,1.45,0,0,1-2.68-.47,1.26,1.26,0,0,1,.34-2.45,1.84,1.84,0,0,1-.05-.41,2,2,0,0,1,4-.1A1.89,1.89,0,0,1,265.35,218.23Z" style="fill:#fff"></path><path d="M262.57,216.45a1.31,1.31,0,0,1,.65-.09,1.22,1.22,0,0,1,.62.26,1.17,1.17,0,0,1,.38.56,1.91,1.91,0,0,1,.06.33,1.67,1.67,0,0,1,0,.32c0-.1-.07-.2-.11-.29a2.24,2.24,0,0,0-.13-.27,1.39,1.39,0,0,0-.35-.44A2,2,0,0,0,262.57,216.45Z" style="fill:#A627FF"></path><path d="M260.43,218a.8.8,0,0,1,.05-.43.87.87,0,0,1,.28-.35.73.73,0,0,1,.44-.13.86.86,0,0,1,.42.12c-.15,0-.28,0-.39.09a1,1,0,0,0-.31.14A1.83,1.83,0,0,0,260.43,218Z" style="fill:#A627FF"></path><path d="M262.34,218.73a.76.76,0,0,1,.42-.09.86.86,0,0,1,.43.15.77.77,0,0,1,.26.38.7.7,0,0,1,0,.43c-.07-.12-.13-.24-.2-.34A1.39,1.39,0,0,0,263,219,1.82,1.82,0,0,0,262.34,218.73Z" style="fill:#A627FF"></path><path d="M272.39,212.3a1.9,1.9,0,0,1-1.9,1.9,1.87,1.87,0,0,1-.91-.24,1.45,1.45,0,0,1-2.68-.47,1.26,1.26,0,0,1,.33-2.45,1.84,1.84,0,0,1,0-.41,2,2,0,0,1,4-.1A1.89,1.89,0,0,1,272.39,212.3Z" style="fill:#fff"></path><path d="M269.61,210.52a1.29,1.29,0,0,1,.65-.09,1.31,1.31,0,0,1,.62.26,1.22,1.22,0,0,1,.38.57,1.65,1.65,0,0,1,.06.32,1.67,1.67,0,0,1,0,.32c0-.1-.07-.2-.11-.29s-.08-.19-.13-.27a1.39,1.39,0,0,0-.35-.44A2,2,0,0,0,269.61,210.52Z" style="fill:#A627FF"></path><path d="M267.47,212.07a.72.72,0,0,1,0-.43.73.73,0,0,1,.28-.35.71.71,0,0,1,.44-.13.82.82,0,0,1,.41.12c-.14,0-.27.05-.38.09a1,1,0,0,0-.31.14A1.83,1.83,0,0,0,267.47,212.07Z" style="fill:#A627FF"></path><path d="M269.38,212.8a.74.74,0,0,1,.42-.09.79.79,0,0,1,.43.16.76.76,0,0,1,.27.8c-.08-.12-.13-.24-.2-.34a1.14,1.14,0,0,0-.24-.25A1.93,1.93,0,0,0,269.38,212.8Z" style="fill:#A627FF"></path><path d="M275.89,216.15a1.9,1.9,0,0,1-1.9,1.9,1.87,1.87,0,0,1-.91-.24,1.44,1.44,0,0,1-2.68-.47,1.26,1.26,0,0,1,.33-2.45,1.84,1.84,0,0,1,0-.41,2,2,0,0,1,4-.1A1.89,1.89,0,0,1,275.89,216.15Z" style="fill:#fff"></path><path d="M273.11,214.37a1.41,1.41,0,0,1,.65-.09,1.31,1.31,0,0,1,.62.26,1.28,1.28,0,0,1,.38.57,1.65,1.65,0,0,1,.06.32,1.67,1.67,0,0,1,0,.32l-.11-.29c-.05-.09-.08-.19-.13-.27a1.51,1.51,0,0,0-.35-.44A2.07,2.07,0,0,0,273.11,214.37Z" style="fill:#A627FF"></path><path d="M271,215.92a.72.72,0,0,1,0-.43.73.73,0,0,1,.28-.35.71.71,0,0,1,.44-.13.74.74,0,0,1,.41.13,3.14,3.14,0,0,0-.38.08,1,1,0,0,0-.31.14A2,2,0,0,0,271,215.92Z" style="fill:#A627FF"></path><path d="M272.88,216.65a.74.74,0,0,1,.42-.09.79.79,0,0,1,.43.16.74.74,0,0,1,.26.37.7.7,0,0,1,0,.43c-.08-.12-.13-.24-.2-.34a1.14,1.14,0,0,0-.24-.25A2.14,2.14,0,0,0,272.88,216.65Z" style="fill:#A627FF"></path><path d="M295.9,215.48a1.89,1.89,0,0,1-1.89,1.89,1.84,1.84,0,0,1-.91-.23,1.44,1.44,0,0,1-2.68-.48,1.25,1.25,0,0,1-.84-1.18,1.28,1.28,0,0,1,1.17-1.27,1.78,1.78,0,0,1,0-.41,2,2,0,0,1,4-.1A1.9,1.9,0,0,1,295.9,215.48Z" style="fill:#fff"></path><path d="M293.13,213.7a1.17,1.17,0,0,1,.64-.09,1.14,1.14,0,0,1,.63.26,1.11,1.11,0,0,1,.37.56,1.23,1.23,0,0,1,.07.32,1.83,1.83,0,0,1,0,.33,1.82,1.82,0,0,1-.11-.3c0-.09-.08-.18-.13-.27a1.47,1.47,0,0,0-.35-.43A2,2,0,0,0,293.13,213.7Z" style="fill:#A627FF"></path><path d="M291,215.25a.7.7,0,0,1,.05-.43.76.76,0,0,1,.28-.36.78.78,0,0,1,.44-.13.74.74,0,0,1,.41.13l-.39.08a1,1,0,0,0-.31.15A2,2,0,0,0,291,215.25Z" style="fill:#A627FF"></path><path d="M292.9,216a.67.67,0,0,1,.42-.09.73.73,0,0,1,.69.53.79.79,0,0,1,0,.43c-.08-.13-.13-.25-.2-.34a.82.82,0,0,0-.24-.25A1.77,1.77,0,0,0,292.9,216Z" style="fill:#A627FF"></path><path d="M289.05,216.3c0,.11,0,.22,0,.33a2.26,2.26,0,0,1-4,1.47,1.24,1.24,0,0,1-1.79-1.11,1.41,1.41,0,0,1,.07-.41,2.26,2.26,0,0,1,3.09-3.26,1.26,1.26,0,0,1,2.4.55v0a1.24,1.24,0,0,1,.18,2.38Z" style="fill:#fff"></path><path d="M286.75,214.26a1.18,1.18,0,0,1,.6-.24,1.21,1.21,0,0,1,.67.11,1.09,1.09,0,0,1,.49.46,1.17,1.17,0,0,1,.14.3,1.65,1.65,0,0,1,.06.32c-.07-.09-.12-.18-.18-.26a2.23,2.23,0,0,0-.19-.24,1.31,1.31,0,0,0-.44-.34A1.91,1.91,0,0,0,286.75,214.26Z" style="fill:#A627FF"></path><path d="M285.14,217.39a1.26,1.26,0,0,1,.21-1.26,1.19,1.19,0,0,1,.57-.36,1.88,1.88,0,0,1,.33-.05,1.66,1.66,0,0,1,.32,0l-.3.1c-.09.05-.19.07-.27.12a1.37,1.37,0,0,0-.45.34A2,2,0,0,0,285.14,217.39Z" style="fill:#A627FF"></path><path d="M284.6,215.07a.8.8,0,0,1,0-.43.91.91,0,0,1,.29-.36.83.83,0,0,1,.43-.13.77.77,0,0,1,.42.13c-.15,0-.27.05-.39.09a1,1,0,0,0-.31.14A1.83,1.83,0,0,0,284.6,215.07Z" style="fill:#A627FF"></path><path d="M312.21,214.59c0,.1,0,.21,0,.32a2.26,2.26,0,0,1-4,1.48,1.25,1.25,0,0,1-1.79-1.12,1.34,1.34,0,0,1,.07-.4,2.31,2.31,0,0,1-.52-1.45,2.26,2.26,0,0,1,3.61-1.81,1.24,1.24,0,0,1,1.13-.72,1.27,1.27,0,0,1,1.27,1.27v0a1.25,1.25,0,0,1,.18,2.39Z" style="fill:#fff"></path><path d="M309.91,212.54a1.27,1.27,0,0,1,.6-.24,1.3,1.3,0,0,1,.67.11,1.21,1.21,0,0,1,.49.46,1.17,1.17,0,0,1,.14.3,1.8,1.8,0,0,1,.06.32c-.07-.09-.12-.18-.18-.26s-.12-.16-.19-.23a1.31,1.31,0,0,0-.44-.34A2,2,0,0,0,309.91,212.54Z" style="fill:#A627FF"></path><path d="M308.3,215.68a1.2,1.2,0,0,1-.07-.65,1.25,1.25,0,0,1,.28-.62,1.17,1.17,0,0,1,.57-.35,1.91,1.91,0,0,1,.33-.06,3.16,3.16,0,0,1,.32,0l-.3.11a2.21,2.21,0,0,0-.27.12,1.38,1.38,0,0,0-.45.33A2,2,0,0,0,308.3,215.68Z" style="fill:#A627FF"></path><path d="M307.76,213.35a.8.8,0,0,1,.05-.43,1,1,0,0,1,.28-.35.73.73,0,0,1,.44-.13.77.77,0,0,1,.42.13,3.33,3.33,0,0,0-.39.08,1,1,0,0,0-.31.14A2,2,0,0,0,307.76,213.35Z" style="fill:#A627FF"></path><path d="M299,214.66c0,.1,0,.21,0,.32a2.26,2.26,0,0,1-4,1.48,1.25,1.25,0,0,1-1.79-1.12,1.34,1.34,0,0,1,.07-.4,2.31,2.31,0,0,1-.52-1.45,2.26,2.26,0,0,1,3.61-1.81,1.24,1.24,0,0,1,1.14-.72,1.27,1.27,0,0,1,1.26,1.27v0a1.25,1.25,0,0,1,.18,2.39Z" style="fill:#fff"></path><path d="M296.71,212.61a1.27,1.27,0,0,1,.6-.24,1.3,1.3,0,0,1,.67.11,1.23,1.23,0,0,1,.5.46,1.6,1.6,0,0,1,.13.3,1.8,1.8,0,0,1,.06.32c-.07-.09-.12-.18-.18-.26a1.37,1.37,0,0,0-.19-.23,1.31,1.31,0,0,0-.44-.34A2,2,0,0,0,296.71,212.61Z" style="fill:#A627FF"></path><path d="M295.1,215.75a1.3,1.3,0,0,1-.07-.65,1.25,1.25,0,0,1,.28-.62,1.27,1.27,0,0,1,.57-.35,1.91,1.91,0,0,1,.33-.06,3.16,3.16,0,0,1,.32,0l-.3.11a1.31,1.31,0,0,0-.27.12,1.5,1.5,0,0,0-.45.33A2,2,0,0,0,295.1,215.75Z" style="fill:#A627FF"></path><path d="M294.56,213.42a.8.8,0,0,1,.05-.43.88.88,0,0,1,.29-.35.68.68,0,0,1,.43-.13.75.75,0,0,1,.42.13,3.33,3.33,0,0,0-.39.08,1,1,0,0,0-.31.14A2,2,0,0,0,294.56,213.42Z" style="fill:#A627FF"></path><path d="M303.69,210.38a1.67,1.67,0,0,1-1.67,1.67h0a1.22,1.22,0,0,1-2.37,0,2,2,0,1,1,1.06-3.82A1.22,1.22,0,0,1,303,209,1.66,1.66,0,0,1,303.69,210.38Z" style="fill:#fff"></path><path d="M300.91,208.71a1.27,1.27,0,0,1,.64-.09,1.3,1.3,0,0,1,.63.26,1.21,1.21,0,0,1,.37.57,1.14,1.14,0,0,1,.07.32c0,.11,0,.22,0,.32a2.12,2.12,0,0,1-.11-.29c-.05-.09-.08-.19-.13-.27a1.39,1.39,0,0,0-.35-.44A2.07,2.07,0,0,0,300.91,208.71Z" style="fill:#A627FF"></path><path d="M298.77,210.26a.72.72,0,0,1,.05-.43.73.73,0,0,1,.28-.35.71.71,0,0,1,.44-.13.82.82,0,0,1,.41.12c-.14,0-.27.05-.39.09a1.23,1.23,0,0,0-.31.14A2,2,0,0,0,298.77,210.26Z" style="fill:#A627FF"></path><path d="M300.68,211a.74.74,0,0,1,.42-.09.73.73,0,0,1,.42.16.67.67,0,0,1,.27.37.79.79,0,0,1,0,.43c-.08-.12-.13-.24-.2-.34a1.14,1.14,0,0,0-.24-.25A1.77,1.77,0,0,0,300.68,211Z" style="fill:#A627FF"></path><path d="M304.17,217.35A1.67,1.67,0,0,1,302.5,219h0a1.21,1.21,0,0,1-2.36,0,2,2,0,0,1-1.94-2,2,2,0,0,1,3-1.8,1.22,1.22,0,0,1,2.28.77A1.66,1.66,0,0,1,304.17,217.35Z" style="fill:#fff"></path><path d="M301.39,215.68a1.27,1.27,0,0,1,.64-.09,1.3,1.3,0,0,1,.63.26,1.41,1.41,0,0,1,.44.89,1.67,1.67,0,0,1,0,.32c0-.1-.07-.2-.11-.29s-.08-.19-.13-.27a1.39,1.39,0,0,0-.35-.44A2.07,2.07,0,0,0,301.39,215.68Z" style="fill:#A627FF"></path><path d="M299.25,217.23a.72.72,0,0,1,.05-.43.73.73,0,0,1,.28-.35.71.71,0,0,1,.44-.13.74.74,0,0,1,.41.13,3.82,3.82,0,0,0-.39.08,1.23,1.23,0,0,0-.31.14A2,2,0,0,0,299.25,217.23Z" style="fill:#A627FF"></path><path d="M301.16,218a.74.74,0,0,1,.42-.09.79.79,0,0,1,.43.16.7.7,0,0,1,.26.37.79.79,0,0,1,0,.43c-.08-.12-.13-.24-.2-.34a1.14,1.14,0,0,0-.24-.25A2.14,2.14,0,0,0,301.16,218Z" style="fill:#A627FF"></path><path d="M308.13,214.42a1.67,1.67,0,0,1-1.67,1.67h0a1.22,1.22,0,0,1-2.37,0,2,2,0,1,1,1.06-3.82,1.22,1.22,0,0,1,2.28.77A1.66,1.66,0,0,1,308.13,214.42Z" style="fill:#fff"></path><path d="M305.35,212.75a1.27,1.27,0,0,1,.64-.09,1.17,1.17,0,0,1,.63.26,1.23,1.23,0,0,1,.37.56,1.3,1.3,0,0,1,.07.33c0,.11,0,.21,0,.32a2.12,2.12,0,0,1-.11-.29c-.05-.09-.08-.19-.13-.27a1.39,1.39,0,0,0-.35-.44A2.07,2.07,0,0,0,305.35,212.75Z" style="fill:#A627FF"></path><path d="M303.21,214.3a.72.72,0,0,1,.05-.43.73.73,0,0,1,.28-.35.71.71,0,0,1,.44-.13.66.66,0,0,1,.41.12c-.14,0-.27.05-.39.09a1.23,1.23,0,0,0-.31.14A2,2,0,0,0,303.21,214.3Z" style="fill:#A627FF"></path><path d="M305.12,215a.74.74,0,0,1,.42-.09.79.79,0,0,1,.42.15.73.73,0,0,1,.27.38.79.79,0,0,1,0,.43c-.08-.13-.13-.24-.2-.34a1.14,1.14,0,0,0-.24-.25A1.83,1.83,0,0,0,305.12,215Z" style="fill:#A627FF"></path><path d="M294.66,218.53a1.9,1.9,0,0,1-1.89,1.9,1.84,1.84,0,0,1-.91-.24,1.44,1.44,0,0,1-2.68-.47,1.26,1.26,0,0,1,.33-2.45,1.84,1.84,0,0,1,0-.41,2,2,0,0,1,4-.1A1.9,1.9,0,0,1,294.66,218.53Z" style="fill:#fff"></path><path d="M291.89,216.75a1.27,1.27,0,0,1,.64-.09,1.3,1.3,0,0,1,.63.26,1.41,1.41,0,0,1,.44.89,1.67,1.67,0,0,1,0,.32,2.12,2.12,0,0,1-.11-.29c-.05-.09-.08-.19-.13-.27a1.39,1.39,0,0,0-.35-.44A2.07,2.07,0,0,0,291.89,216.75Z" style="fill:#A627FF"></path><path d="M289.75,218.3a.72.72,0,0,1,.05-.43.73.73,0,0,1,.28-.35.71.71,0,0,1,.44-.13.74.74,0,0,1,.41.13,3.82,3.82,0,0,0-.39.08,1.23,1.23,0,0,0-.31.14A2,2,0,0,0,289.75,218.3Z" style="fill:#A627FF"></path><path d="M291.66,219a.74.74,0,0,1,.42-.09.79.79,0,0,1,.43.16.7.7,0,0,1,.26.37.79.79,0,0,1,0,.43c-.08-.12-.13-.24-.2-.34a1.14,1.14,0,0,0-.24-.25A2.14,2.14,0,0,0,291.66,219Z" style="fill:#A627FF"></path><path d="M300.23,220.58a1.9,1.9,0,0,1-1.9,1.9,1.87,1.87,0,0,1-.91-.24,1.45,1.45,0,0,1-2.68-.47,1.26,1.26,0,0,1,.33-2.45,1.84,1.84,0,0,1,0-.41,2,2,0,0,1,4-.1A1.89,1.89,0,0,1,300.23,220.58Z" style="fill:#fff"></path><path d="M297.45,218.8a1.29,1.29,0,0,1,.65-.09,1.31,1.31,0,0,1,.62.26,1.22,1.22,0,0,1,.38.57,1.65,1.65,0,0,1,.06.32,1.67,1.67,0,0,1,0,.32c0-.1-.07-.2-.11-.29s-.08-.19-.13-.27a1.39,1.39,0,0,0-.35-.44A2,2,0,0,0,297.45,218.8Z" style="fill:#A627FF"></path><path d="M295.31,220.35a.72.72,0,0,1,.05-.43.73.73,0,0,1,.28-.35.71.71,0,0,1,.44-.13.82.82,0,0,1,.41.12c-.14,0-.27.05-.38.09a1,1,0,0,0-.31.14A1.83,1.83,0,0,0,295.31,220.35Z" style="fill:#A627FF"></path><path d="M297.22,221.08a.74.74,0,0,1,.42-.09.79.79,0,0,1,.43.16.76.76,0,0,1,.27.8c-.08-.12-.13-.24-.2-.34a1.14,1.14,0,0,0-.24-.25A1.93,1.93,0,0,0,297.22,221.08Z" style="fill:#A627FF"></path><path d="M304.55,214.91a1.89,1.89,0,0,1-2.81,1.66,1.41,1.41,0,0,1-1.25.73,1.45,1.45,0,0,1-1.43-1.2,1.27,1.27,0,0,1-.83-1.19,1.26,1.26,0,0,1,1.17-1.26,1.84,1.84,0,0,1,0-.41,2,2,0,0,1,4-.1A1.9,1.9,0,0,1,304.55,214.91Z" style="fill:#fff"></path><path d="M301.78,213.13a1.27,1.27,0,0,1,.64-.09,1.17,1.17,0,0,1,.63.26,1.23,1.23,0,0,1,.37.56,1.3,1.3,0,0,1,.07.33c0,.11,0,.22,0,.32a2.12,2.12,0,0,1-.11-.29c-.05-.09-.08-.19-.13-.27a1.39,1.39,0,0,0-.35-.44A2.07,2.07,0,0,0,301.78,213.13Z" style="fill:#A627FF"></path><path d="M299.64,214.68a.72.72,0,0,1,.05-.43.73.73,0,0,1,.28-.35.71.71,0,0,1,.44-.13.82.82,0,0,1,.41.12c-.14,0-.27.05-.39.09a1.09,1.09,0,0,0-.31.14A2,2,0,0,0,299.64,214.68Z" style="fill:#A627FF"></path><path d="M301.55,215.41a.74.74,0,0,1,.42-.09.79.79,0,0,1,.42.15.73.73,0,0,1,.27.38.79.79,0,0,1,0,.43c-.08-.12-.13-.24-.2-.34a1.14,1.14,0,0,0-.24-.25A1.83,1.83,0,0,0,301.55,215.41Z" style="fill:#A627FF"></path><path d="M310.76,218.5a1.9,1.9,0,0,1-1.89,1.9,2,2,0,0,1-.92-.23,1.44,1.44,0,0,1-2.67-.48,1.26,1.26,0,0,1,.33-2.45,1.84,1.84,0,0,1,0-.41,2,2,0,0,1,4-.1A1.9,1.9,0,0,1,310.76,218.5Z" style="fill:#fff"></path><path d="M308,216.72a1.26,1.26,0,0,1,.64-.08,1.2,1.2,0,0,1,.63.25,1.26,1.26,0,0,1,.37.57,1.23,1.23,0,0,1,.07.32c0,.11,0,.22,0,.32a1.72,1.72,0,0,1-.11-.29c-.05-.09-.08-.19-.13-.27a1.35,1.35,0,0,0-.35-.43A2.08,2.08,0,0,0,308,216.72Z" style="fill:#A627FF"></path><path d="M305.85,218.27a.72.72,0,0,1,0-.43.78.78,0,0,1,.28-.35.71.71,0,0,1,.44-.13.74.74,0,0,1,.41.13,3.82,3.82,0,0,0-.39.08,1.23,1.23,0,0,0-.31.14A2.1,2.1,0,0,0,305.85,218.27Z" style="fill:#A627FF"></path><path d="M307.76,219a.74.74,0,0,1,.42-.09.73.73,0,0,1,.42.16.7.7,0,0,1,.27.37.79.79,0,0,1,0,.43c-.08-.12-.13-.24-.2-.34a.91.91,0,0,0-.24-.24A1.94,1.94,0,0,0,307.76,219Z" style="fill:#A627FF"></path><path d="M314.64,216.34s-3.89,25.95-17.46,25.95H262.46c-13.56,0-17.46-25.95-17.46-25.95Z" style="fill:#A627FF"></path><rect x="262.74" y="242.29" width="34.16" height="4.68" style="fill:#A627FF"></rect><polygon points="296.9 245.3 262.74 244.17 262.74 242.29 296.9 242.29 296.9 245.3" style="opacity:0.1"></polygon><path d="M313.61,221.27c-.14.56-.3,1.15-.47,1.77H246.5c-.17-.62-.32-1.21-.47-1.77Z" style="opacity:0.1"></path><path d="M308.3,234.7c-.39.61-.79,1.21-1.21,1.78H252.56c-.43-.57-.83-1.17-1.21-1.78Z" style="opacity:0.1"></path><path d="M312.4,225.5a48.54,48.54,0,0,1-2.74,6.75H250a48.45,48.45,0,0,1-2.73-6.75Z" style="opacity:0.2"></path><path d="M202.74,199.36c-1.67,19.82,2.79,45.16,9,49.7,4.44,3.26,30.56,8.49,46.25,9.64,3.41.25,7.89-26.38,4.23-26.59-8.62-.49-35.44-5.07-36.7-5.48-1.06-.35-6.85-15.47-11.81-28.3C208.53,185,203.21,193.78,202.74,199.36Z" style="fill:#ad6359"></path><path d="M255.76,258.54c9.84,1.11,22,3.09,32.21-1.46a5.55,5.55,0,0,0,2.71-2.41c4.6-1.95,5.06-4.72,5.06-4.72,3.73-3.14,3.82-6,3.82-6s5.38-2.36,4.49-5.85c-1-3.91-8.35.16-13.77-.07-12.43-.54-29.94-4.78-33.51-5.3Z" style="fill:#ad6359"></path><path d="M276.86,246.59a81.09,81.09,0,0,0,10.91-.15,80.09,80.09,0,0,0,11.66-2.58.1.1,0,0,1,.07.18,42.26,42.26,0,0,1-22.65,2.71C276.68,246.72,276.67,246.58,276.86,246.59Z" style="fill:#263238"></path><path d="M275.44,254c3.57-.11,9.84-.35,20.26-4.2,0,0,.07,0,0,.06a37.94,37.94,0,0,1-20.28,4.31C275.22,254.2,275.21,254.05,275.44,254Z" style="fill:#263238"></path><path d="M274.76,258.06c6.05-.42,9.82-1.46,15.88-3.4,0,0,.07,0,0,.06-6.66,2.93-9.41,3.24-15.93,3.55C274.52,258.28,274.52,258.08,274.76,258.06Z" style="fill:#263238"></path><path d="M275.35,236.4c-1.59-.71-1.23-1.55,1.77-2.3s15.54-1.19,15-5.55S274,225.06,269,226.7s-12.27,6-12.27,6C260.24,233.23,268.55,235.29,275.35,236.4Z" style="fill:#ad6359"></path><path d="M200.78,222l20.65-6.36s-4.75-14.33-10-21.8-9-3.48-10,5.32S200.78,222,200.78,222Z" style="fill:#ebebeb"></path><path d="M207.71,190.22l-4.31,1.94a5.78,5.78,0,0,1,1.15-1.47l1.68-.76A2.9,2.9,0,0,1,207.71,190.22Zm1.69,1.15-7,3.16c-.12.35-.21.71-.31,1.09l7.94-3.58C209.83,191.79,209.61,191.57,209.4,191.37Zm2.08,2.47c-.1-.14-.19-.28-.29-.41l-9.51,4.29-.15,1,10.16-4.58Zm1.17,1.8-11.33,5.11c0,.33-.07.67-.09,1l11.86-5.36C213,196.14,212.8,195.89,212.65,195.64Zm1.3,2.27-12.86,5.81c0,.33-.05.66-.07,1l13.34-6C214.22,198.43,214.09,198.17,214,197.91Zm1.21,2.32-14.24,6.43c0,.32,0,.65,0,1L215.54,201C215.41,200.76,215.28,200.49,215.16,200.23Zm1.11,2.37-15.45,7,0,1,15.85-7.15C216.52,203.13,216.4,202.86,216.27,202.6Zm-15.51,9.87c0,.32,0,.64,0,1l16.94-7.64c-.11-.26-.22-.53-.34-.8Zm0,2.87v1l17.94-8.1-.32-.81Zm0,2.87c0,.34,0,.65,0,.95l18.89-8.52c-.1-.27-.21-.54-.31-.82Zm0,2.85,0,.93.07,0,19.68-8.88c-.08-.26-.18-.53-.29-.82Zm13.41-3.19,6.72-2.07.52-.23c0-.13-.14-.41-.29-.84Z" style="fill:#dbdbdb"></path><path d="M219.23,212.24a136.59,136.59,0,0,0-17.5,5.56s0,.15,0,.14c4.86-1.23,14.35-4.41,17.52-5.49C219.35,212.43,219.29,212.23,219.23,212.24Z" style="fill:#263238"></path><path d="M217.74,203.72s-.06,0-.05,0q.19,1.17.48,2.31c-.67-1.48-1.37-3-2.11-4.39a0,0,0,1,0-.08,0c1.73,4.56,3.35,9.18,5.17,13.71-.43.29-.87.58-1.32.83a.07.07,0,1,0,.06.12c.53-.22,1.08-.41,1.63-.59a.28.28,0,0,0,.21-.31,69.2,69.2,0,0,0-2.95-8c-.08-.46-.17-.93-.29-1.39A17.29,17.29,0,0,0,217.74,203.72Z" style="fill:#263238"></path><path d="M210.91,189.36c.44,1,6.57,6.5,11.11,5.34,1.48-.38-.23-8.55-.23-8.55l0-.63.15-8.85-11.24-4.33-1.61-.55s.12,2.42.29,5.43l0,.43c0,.18,0,.34,0,.5,0,.45,0,.91.07,1.36s0,.69.09,1.06l.09,1.09A57.27,57.27,0,0,0,210.91,189.36Z" style="fill:#ad6359"></path><path d="M209.4,177.22a17.77,17.77,0,0,0,12.41,8.3l.15-8.85-11.24-4.33-1.61-.55S209.23,174.21,209.4,177.22Z" style="fill:#263238"></path><path d="M232.21,160.92c4.11,15-4.4,19.13-7.63,20-2.93.8-13,3.15-18.65-11.31s0-21.12,6.64-23.3S228.1,146,232.21,160.92Z" style="fill:#ad6359"></path><path d="M228.82,159.4a9.57,9.57,0,0,1-1.07,0,1.71,1.71,0,0,1-1.09-.22.55.55,0,0,1-.13-.66,1.35,1.35,0,0,1,1.26-.58,2,2,0,0,1,1.38.45A.59.59,0,0,1,228.82,159.4Z" style="fill:#263238"></path><path d="M218.87,161.71a9.32,9.32,0,0,0,1-.42,1.74,1.74,0,0,0,.92-.62.53.53,0,0,0-.13-.66,1.38,1.38,0,0,0-1.39,0,2,2,0,0,0-1.09.94A.59.59,0,0,0,218.87,161.71Z" style="fill:#263238"></path><path d="M221.66,165.15s-.07.07-.06.11c.27,1,.4,2.24-.46,2.79,0,0,0,.07,0,.06C222.27,167.69,222.08,166.08,221.66,165.15Z" style="fill:#263238"></path><path d="M220.5,164.28c-1.69.24-1.07,3.6.49,3.37S221.91,164.07,220.5,164.28Z" style="fill:#263238"></path><path d="M219.87,164.58c-.25.24-.48.63-.83.73s-.77-.18-1.1-.47c0,0-.06,0-.05,0,.11.65.48,1.26,1.18,1.23s1-.68,1-1.36C220.11,164.64,220,164.48,219.87,164.58Z" style="fill:#263238"></path><path d="M227.58,163.6s.09,0,.09.08c.15,1,.5,2.22,1.51,2.4,0,0,0,0,0,.06C228,166.18,227.55,164.61,227.58,163.6Z" style="fill:#263238"></path><path d="M228.32,162.35c1.65-.43,2.37,2.91.84,3.3S226.93,162.7,228.32,162.35Z" style="fill:#263238"></path><path d="M229.06,162.42c.3.12.63.38.95.33s.56-.47.72-.87c0,0,.05,0,.06,0,.15.63.09,1.34-.5,1.6s-1.06-.23-1.35-.83C228.89,162.57,228.94,162.37,229.06,162.42Z" style="fill:#263238"></path><path d="M223.13,173.15c.29.21.58.52,1,.5a2.91,2.91,0,0,0,1.09-.42,0,0,0,0,1,.05.05A1.42,1.42,0,0,1,224,174a1.12,1.12,0,0,1-1-.81C223,173.16,223.09,173.12,223.13,173.15Z" style="fill:#263238"></path><path d="M226.73,168.55s.52,1.51.66,2.24c0,.07-.15.14-.4.2h0a3.56,3.56,0,0,1-3.63-.64c-.06-.06,0-.15.09-.12a5.3,5.3,0,0,0,3.35.28c0-.21-1-2.55-.86-2.58a6.88,6.88,0,0,1,1.74.05c-1-3.17-2.48-6.16-3.42-9.33,0-.11.13-.18.18-.08a53.52,53.52,0,0,1,4.11,9.89C228.66,168.87,227.05,168.62,226.73,168.55Z" style="fill:#263238"></path><path d="M220.45,148a6.7,6.7,0,0,1,.15,4c-1.32,3.53-5.49,3-6.77,4.46s-.51,3.93-1.59,5.29c-1.49,1.89-3.78,1.41-4,2.6s-.62,5-2.07,5.61-10.48-23.62,9.12-24.55c0,0,2.59-1.33,6.93.4s7.8,9.34,7.8,9.34a4.75,4.75,0,0,1-1.18-.68c-1-.75-1.45-1.48-2.19-2-1.15-.75-1.72-.38-2.92-1.11A12.82,12.82,0,0,1,220.45,148Z" style="fill:#263238"></path><path d="M220.06,147a13.85,13.85,0,0,1,.83,2.94,5.51,5.51,0,0,1-.17,2.94,4,4,0,0,1-2.08,1.94c-.9.42-1.92.61-2.88,1.09a3.16,3.16,0,0,0-1.23,1.1,4.07,4.07,0,0,0-.44,1.55,5.46,5.46,0,0,1-.85,2.8,3.39,3.39,0,0,1-2.52,1.33,7.36,7.36,0,0,0-3,.42,7.17,7.17,0,0,1,3-.18,3.71,3.71,0,0,0,2.8-1.34,5.41,5.41,0,0,0,1-3,3.77,3.77,0,0,1,.41-1.38,2.67,2.67,0,0,1,1-.91c.86-.45,1.89-.66,2.84-1.12a5.16,5.16,0,0,0,1.33-.89,3.1,3.1,0,0,0,.92-1.32,5.71,5.71,0,0,0,.05-3.12A13.54,13.54,0,0,0,220.06,147Z" style="fill:#263238"></path><path d="M220.51,147.81a10.74,10.74,0,0,0,1.18,2.61,5,5,0,0,0,2.15,2,8,8,0,0,0,1.39.41,2.27,2.27,0,0,1,1.12.61,7.28,7.28,0,0,0,1,1.08,3.17,3.17,0,0,0,1.3.61,3.38,3.38,0,0,1-1.14-.79,7.63,7.63,0,0,1-.82-1.13,2.43,2.43,0,0,0-1.28-.82A7.59,7.59,0,0,1,224,152a5.36,5.36,0,0,1-2-1.76A20.88,20.88,0,0,1,220.51,147.81Z" style="fill:#263238"></path><path d="M208.63,170.11s-4.21-4.15-6.15-2.57,1.82,8,4.54,8.52a2.62,2.62,0,0,0,3.2-2Z" style="fill:#ad6359"></path><path d="M203.6,169.36s0,.07,0,.07c1.92.4,3.16,1.88,4.13,3.47a1.46,1.46,0,0,0-2.21,0s0,.11.07.09a1.62,1.62,0,0,1,1.85.23,7.71,7.71,0,0,1,1.09,1.26c.12.15.39,0,.29-.16l0,0C208.43,172,206.08,169.15,203.6,169.36Z" style="fill:#263238"></path></g><g id="freepik--TV--inject-23"><rect x="457.02" y="207.66" width="210.63" height="111.75" style="fill:#37474f"></rect><rect x="457.02" y="207.66" width="6.32" height="111.75" style="fill:#263238"></rect><rect x="540.11" y="250.87" width="60.71" height="32.21" style="fill:#455a64"></rect><rect x="534.99" y="250.87" width="5.12" height="32.21" transform="translate(1075.1 533.95) rotate(180)" style="fill:#263238"></rect><rect x="544.52" y="255.18" width="1.87" height="24.17" style="fill:#37474f"></rect><rect x="548.69" y="255.18" width="1.87" height="24.17" style="fill:#37474f"></rect><rect x="552.86" y="255.18" width="1.87" height="24.17" style="fill:#37474f"></rect><rect x="557.02" y="255.18" width="1.87" height="24.17" style="fill:#37474f"></rect><rect x="561.19" y="255.18" width="1.87" height="24.17" style="fill:#37474f"></rect><rect x="565.36" y="255.18" width="1.88" height="24.17" style="fill:#37474f"></rect><rect x="569.52" y="255.18" width="1.88" height="24.17" style="fill:#37474f"></rect><rect x="573.69" y="255.18" width="1.88" height="24.17" style="fill:#37474f"></rect><rect x="577.86" y="255.18" width="1.88" height="24.17" style="fill:#37474f"></rect><rect x="582.02" y="255.18" width="1.88" height="24.17" style="fill:#37474f"></rect><rect x="586.19" y="255.18" width="1.87" height="24.17" style="fill:#37474f"></rect><rect x="590.36" y="255.18" width="1.87" height="24.17" style="fill:#37474f"></rect><rect x="594.52" y="255.18" width="1.87" height="24.17" style="fill:#37474f"></rect><path d="M577.48,327.77H547.19a8.35,8.35,0,0,1-8.36-8.35h47A8.36,8.36,0,0,1,577.48,327.77Z" style="fill:#37474f"></path><path d="M585.84,319.42a9.42,9.42,0,0,1-.64,3.43l-46.14-1.35h0a9.25,9.25,0,0,1-.23-2.07Z" style="fill:#263238"></path><rect x="504.69" y="326.12" width="115.3" height="4.71" style="fill:#37474f"></rect><rect x="416.4" y="330.83" width="276.25" height="84.57" style="fill:#a6a6a6"></rect><rect x="473.12" y="330.83" width="219.53" height="84.57" style="fill:#c7c7c7"></rect><polygon points="673.11 415.4 673.73 423.08 675.19 440.82 681.88 440.82 683.34 423.08 683.96 415.4 673.11 415.4" style="fill:#c7c7c7"></polygon><polygon points="683.96 415.4 673.11 415.4 673.73 423.08 683.34 423.08 683.96 415.4" style="fill:#a6a6a6"></polygon><polygon points="621.58 415.4 622.2 423.08 623.66 440.82 630.35 440.82 631.81 423.08 632.43 415.4 621.58 415.4" style="fill:#c7c7c7"></polygon><polygon points="621.58 415.4 622.2 423.08 631.81 423.08 632.43 415.4 621.58 415.4" style="fill:#a6a6a6"></polygon><polygon points="483.19 415.4 483.81 423.08 485.27 440.82 491.96 440.82 493.42 423.08 494.04 415.4 483.19 415.4" style="fill:#c7c7c7"></polygon><polygon points="494.04 415.4 483.19 415.4 483.81 423.08 493.42 423.08 494.04 415.4" style="fill:#a6a6a6"></polygon><polygon points="431.66 415.4 432.29 423.08 433.74 440.82 440.43 440.82 441.89 423.08 442.52 415.4 431.66 415.4" style="fill:#c7c7c7"></polygon><polygon points="431.66 415.4 432.29 423.08 441.89 423.08 442.52 415.4 431.66 415.4" style="fill:#a6a6a6"></polygon></g></svg>